<?xml version="1.0" encoding="utf-8" standalone="no"?>
<!DOCTYPE svg PUBLIC "-//W3C//DTD SVG 1.1//EN"
  "http://www.w3.org/Graphics/SVG/1.1/DTD/svg11.dtd">
<svg xmlns:xlink="http://www.w3.org/1999/xlink" width="216pt" height="216pt" viewBox="0 0 216 216" xmlns="http://www.w3.org/2000/svg" version="1.1">
 <metadata>
  <rdf:RDF xmlns:dc="http://purl.org/dc/elements/1.1/" xmlns:cc="http://creativecommons.org/ns#" xmlns:rdf="http://www.w3.org/1999/02/22-rdf-syntax-ns#">
   <cc:Work>
    <dc:type rdf:resource="http://purl.org/dc/dcmitype/StillImage"/>
    <dc:date>2024-03-05T12:07:08.335133</dc:date>
    <dc:format>image/svg+xml</dc:format>
    <dc:creator>
     <cc:Agent>
      <dc:title>Matplotlib v3.8.2, https://matplotlib.org/</dc:title>
     </cc:Agent>
    </dc:creator>
   </cc:Work>
  </rdf:RDF>
 </metadata>
 <defs>
  <style type="text/css">*{stroke-linejoin: round; stroke-linecap: butt}</style>
 </defs>
 <g id="figure_1">
  <g id="patch_1">
   <path d="M 0 216 
L 216 216 
L 216 0 
L 0 0 
z
" style="fill: #ffffff"/>
  </g>
  <g id="axes_1">
   <g id="patch_2">
    <path d="M 30.040865 207.120854 
L 209.81851 207.120854 
L 209.81851 31.276802 
L 30.040865 31.276802 
z
" style="fill: #ffffff"/>
   </g>
   <g id="PolyCollection_1">
    <defs>
     <path id="m1af0ca2d59" d="M 120.407002 -184.723198 
L 120.407002 -8.879146 
L 209.81851 -8.879146 
L 209.81851 -184.723198 
L 209.81851 -184.723198 
L 120.407002 -184.723198 
z
" style="stroke: #d3d3d3"/>
    </defs>
    <g clip-path="url(#p91565741ab)">
     <use xlink:href="#m1af0ca2d59" x="0" y="216" style="fill: #d3d3d3; stroke: #d3d3d3"/>
    </g>
   </g>
   <g id="PolyCollection_2">
    <defs>
     <path id="m6d96ec312b" d="M 30.040865 -8.879146 
L 30.040865 -87.662304 
L 31.856801 -8.879146 
L 33.672737 -8.879146 
L 35.488672 -8.879146 
L 37.304608 -8.879146 
L 39.120544 -8.879146 
L 40.93648 -8.879146 
L 42.752416 -8.879146 
L 44.568351 -8.879146 
L 46.384287 -8.879146 
L 48.200223 -8.879146 
L 50.016159 -8.879146 
L 51.832095 -8.879146 
L 53.648031 -8.879146 
L 55.463966 -8.879146 
L 57.279902 -8.879146 
L 59.095838 -8.879146 
L 60.911774 -8.879146 
L 62.72771 -8.879146 
L 64.543645 -8.879146 
L 66.359581 -8.879146 
L 68.175517 -8.879146 
L 69.991453 -8.879146 
L 71.807389 -8.879146 
L 73.623324 -8.879146 
L 75.43926 -8.879146 
L 77.255196 -8.879146 
L 79.071132 -8.879146 
L 80.887068 -8.879146 
L 82.703003 -8.879146 
L 84.518939 -8.879146 
L 86.334875 -8.879146 
L 88.150811 -8.879146 
L 89.966747 -8.879146 
L 91.782682 -8.879146 
L 93.598618 -8.879146 
L 95.414554 -8.879146 
L 97.23049 -8.879146 
L 99.046426 -8.879146 
L 100.862362 -8.879146 
L 102.678297 -8.879146 
L 104.494233 -8.879146 
L 106.310169 -8.879146 
L 108.126105 -8.879146 
L 109.942041 -8.879146 
L 111.757976 -8.879146 
L 113.573912 -8.879146 
L 115.389848 -8.879146 
L 117.205784 -8.879146 
L 119.02172 -8.879146 
L 120.837655 -8.879146 
L 122.653591 -8.879146 
L 124.469527 -8.879146 
L 126.285463 -8.879146 
L 128.101399 -8.879146 
L 129.917334 -15.46964 
L 131.73327 -28.453523 
L 133.549206 -39.227495 
L 135.365142 -48.354794 
L 137.181078 -56.235737 
L 138.997013 -63.107932 
L 140.812949 -69.175929 
L 142.628885 -74.579964 
L 144.444821 -79.424012 
L 146.260757 -83.807422 
L 148.076693 -87.793784 
L 149.892628 -91.427995 
L 151.708564 -94.755356 
L 153.5245 -97.82372 
L 155.340436 -100.662646 
L 157.156372 -103.286717 
L 158.972307 -105.716428 
L 160.788243 -107.367485 
L 162.604179 -107.54994 
L 164.420115 -107.743128 
L 166.236051 -107.925583 
L 168.051986 -108.118771 
L 169.867922 -108.301227 
L 171.683858 -108.47295 
L 173.499794 -108.655405 
L 175.31573 -108.83786 
L 177.131665 -109.009583 
L 178.947601 -109.192038 
L 180.763537 -109.363761 
L 182.579473 -109.535484 
L 184.395409 -109.707207 
L 186.211344 -109.868197 
L 188.02728 -110.039919 
L 189.843216 -110.200909 
L 191.659152 -110.372632 
L 193.475088 -110.533622 
L 195.291024 -110.694612 
L 197.106959 -110.855602 
L 198.922895 -111.005859 
L 200.738831 -111.16685 
L 202.554767 -111.32784 
L 204.370703 -111.478097 
L 206.186638 -111.628354 
L 208.002574 -111.778612 
L 209.81851 -111.928869 
L 209.81851 -8.879146 
L 209.81851 -8.879146 
L 208.002574 -8.879146 
L 206.186638 -8.879146 
L 204.370703 -8.879146 
L 202.554767 -8.879146 
L 200.738831 -8.879146 
L 198.922895 -8.879146 
L 197.106959 -8.879146 
L 195.291024 -8.879146 
L 193.475088 -8.879146 
L 191.659152 -8.879146 
L 189.843216 -8.879146 
L 188.02728 -8.879146 
L 186.211344 -8.879146 
L 184.395409 -8.879146 
L 182.579473 -8.879146 
L 180.763537 -8.879146 
L 178.947601 -8.879146 
L 177.131665 -8.879146 
L 175.31573 -8.879146 
L 173.499794 -8.879146 
L 171.683858 -8.879146 
L 169.867922 -8.879146 
L 168.051986 -8.879146 
L 166.236051 -8.879146 
L 164.420115 -8.879146 
L 162.604179 -8.879146 
L 160.788243 -8.879146 
L 158.972307 -8.879146 
L 157.156372 -8.879146 
L 155.340436 -8.879146 
L 153.5245 -8.879146 
L 151.708564 -8.879146 
L 149.892628 -8.879146 
L 148.076693 -8.879146 
L 146.260757 -8.879146 
L 144.444821 -8.879146 
L 142.628885 -8.879146 
L 140.812949 -8.879146 
L 138.997013 -8.879146 
L 137.181078 -8.879146 
L 135.365142 -8.879146 
L 133.549206 -8.879146 
L 131.73327 -8.879146 
L 129.917334 -8.879146 
L 128.101399 -8.879146 
L 126.285463 -8.879146 
L 124.469527 -8.879146 
L 122.653591 -8.879146 
L 120.837655 -8.879146 
L 119.02172 -8.879146 
L 117.205784 -8.879146 
L 115.389848 -8.879146 
L 113.573912 -8.879146 
L 111.757976 -8.879146 
L 109.942041 -8.879146 
L 108.126105 -8.879146 
L 106.310169 -8.879146 
L 104.494233 -8.879146 
L 102.678297 -8.879146 
L 100.862362 -8.879146 
L 99.046426 -8.879146 
L 97.23049 -8.879146 
L 95.414554 -8.879146 
L 93.598618 -8.879146 
L 91.782682 -8.879146 
L 89.966747 -8.879146 
L 88.150811 -8.879146 
L 86.334875 -8.879146 
L 84.518939 -8.879146 
L 82.703003 -8.879146 
L 80.887068 -8.879146 
L 79.071132 -8.879146 
L 77.255196 -8.879146 
L 75.43926 -8.879146 
L 73.623324 -8.879146 
L 71.807389 -8.879146 
L 69.991453 -8.879146 
L 68.175517 -8.879146 
L 66.359581 -8.879146 
L 64.543645 -8.879146 
L 62.72771 -8.879146 
L 60.911774 -8.879146 
L 59.095838 -8.879146 
L 57.279902 -8.879146 
L 55.463966 -8.879146 
L 53.648031 -8.879146 
L 51.832095 -8.879146 
L 50.016159 -8.879146 
L 48.200223 -8.879146 
L 46.384287 -8.879146 
L 44.568351 -8.879146 
L 42.752416 -8.879146 
L 40.93648 -8.879146 
L 39.120544 -8.879146 
L 37.304608 -8.879146 
L 35.488672 -8.879146 
L 33.672737 -8.879146 
L 31.856801 -8.879146 
L 30.040865 -8.879146 
z
" style="stroke: #a9a9a9"/>
    </defs>
    <g clip-path="url(#p91565741ab)">
     <use xlink:href="#m6d96ec312b" x="0" y="216" style="fill: #a9a9a9; stroke: #a9a9a9"/>
    </g>
   </g>
   <g id="matplotlib.axis_1">
    <g id="xtick_1">
     <g id="line2d_1">
      <defs>
       <path id="m2d8865fe24" d="M 0 0 
L 0 -3.5 
" style="stroke: #000000; stroke-width: 0.8"/>
      </defs>
      <g>
       <use xlink:href="#m2d8865fe24" x="30.040865" y="31.276802" style="stroke: #000000; stroke-width: 0.8"/>
      </g>
     </g>
     <g id="text_1">
      <!-- 0 -->
      <g transform="translate(26.859615 22.197115) scale(0.1 -0.1)">
       <defs>
        <path id="DejaVuSans-30" d="M 2034 4250 
Q 1547 4250 1301 3770 
Q 1056 3291 1056 2328 
Q 1056 1369 1301 889 
Q 1547 409 2034 409 
Q 2525 409 2770 889 
Q 3016 1369 3016 2328 
Q 3016 3291 2770 3770 
Q 2525 4250 2034 4250 
z
M 2034 4750 
Q 2819 4750 3233 4129 
Q 3647 3509 3647 2328 
Q 3647 1150 3233 529 
Q 2819 -91 2034 -91 
Q 1250 -91 836 529 
Q 422 1150 422 2328 
Q 422 3509 836 4129 
Q 1250 4750 2034 4750 
z
" transform="scale(0.015625)"/>
       </defs>
       <use xlink:href="#DejaVuSans-30"/>
      </g>
     </g>
    </g>
    <g id="xtick_2">
     <g id="line2d_2">
      <g>
       <use xlink:href="#m2d8865fe24" x="209.81851" y="31.276802" style="stroke: #000000; stroke-width: 0.8"/>
      </g>
     </g>
     <g id="text_2">
      <!-- 1 -->
      <g transform="translate(206.63726 22.197115) scale(0.1 -0.1)">
       <defs>
        <path id="DejaVuSans-31" d="M 794 531 
L 1825 531 
L 1825 4091 
L 703 3866 
L 703 4441 
L 1819 4666 
L 2450 4666 
L 2450 531 
L 3481 531 
L 3481 0 
L 794 0 
L 794 531 
z
" transform="scale(0.015625)"/>
       </defs>
       <use xlink:href="#DejaVuSans-31"/>
      </g>
     </g>
    </g>
    <g id="text_3">
     <!-- private nutrient -->
     <g transform="translate(80.714062 10.598677) scale(0.1 -0.1)">
      <defs>
       <path id="DejaVuSans-70" d="M 1159 525 
L 1159 -1331 
L 581 -1331 
L 581 3500 
L 1159 3500 
L 1159 2969 
Q 1341 3281 1617 3432 
Q 1894 3584 2278 3584 
Q 2916 3584 3314 3078 
Q 3713 2572 3713 1747 
Q 3713 922 3314 415 
Q 2916 -91 2278 -91 
Q 1894 -91 1617 61 
Q 1341 213 1159 525 
z
M 3116 1747 
Q 3116 2381 2855 2742 
Q 2594 3103 2138 3103 
Q 1681 3103 1420 2742 
Q 1159 2381 1159 1747 
Q 1159 1113 1420 752 
Q 1681 391 2138 391 
Q 2594 391 2855 752 
Q 3116 1113 3116 1747 
z
" transform="scale(0.015625)"/>
       <path id="DejaVuSans-72" d="M 2631 2963 
Q 2534 3019 2420 3045 
Q 2306 3072 2169 3072 
Q 1681 3072 1420 2755 
Q 1159 2438 1159 1844 
L 1159 0 
L 581 0 
L 581 3500 
L 1159 3500 
L 1159 2956 
Q 1341 3275 1631 3429 
Q 1922 3584 2338 3584 
Q 2397 3584 2469 3576 
Q 2541 3569 2628 3553 
L 2631 2963 
z
" transform="scale(0.015625)"/>
       <path id="DejaVuSans-69" d="M 603 3500 
L 1178 3500 
L 1178 0 
L 603 0 
L 603 3500 
z
M 603 4863 
L 1178 4863 
L 1178 4134 
L 603 4134 
L 603 4863 
z
" transform="scale(0.015625)"/>
       <path id="DejaVuSans-76" d="M 191 3500 
L 800 3500 
L 1894 563 
L 2988 3500 
L 3597 3500 
L 2284 0 
L 1503 0 
L 191 3500 
z
" transform="scale(0.015625)"/>
       <path id="DejaVuSans-61" d="M 2194 1759 
Q 1497 1759 1228 1600 
Q 959 1441 959 1056 
Q 959 750 1161 570 
Q 1363 391 1709 391 
Q 2188 391 2477 730 
Q 2766 1069 2766 1631 
L 2766 1759 
L 2194 1759 
z
M 3341 1997 
L 3341 0 
L 2766 0 
L 2766 531 
Q 2569 213 2275 61 
Q 1981 -91 1556 -91 
Q 1019 -91 701 211 
Q 384 513 384 1019 
Q 384 1609 779 1909 
Q 1175 2209 1959 2209 
L 2766 2209 
L 2766 2266 
Q 2766 2663 2505 2880 
Q 2244 3097 1772 3097 
Q 1472 3097 1187 3025 
Q 903 2953 641 2809 
L 641 3341 
Q 956 3463 1253 3523 
Q 1550 3584 1831 3584 
Q 2591 3584 2966 3190 
Q 3341 2797 3341 1997 
z
" transform="scale(0.015625)"/>
       <path id="DejaVuSans-74" d="M 1172 4494 
L 1172 3500 
L 2356 3500 
L 2356 3053 
L 1172 3053 
L 1172 1153 
Q 1172 725 1289 603 
Q 1406 481 1766 481 
L 2356 481 
L 2356 0 
L 1766 0 
Q 1100 0 847 248 
Q 594 497 594 1153 
L 594 3053 
L 172 3053 
L 172 3500 
L 594 3500 
L 594 4494 
L 1172 4494 
z
" transform="scale(0.015625)"/>
       <path id="DejaVuSans-65" d="M 3597 1894 
L 3597 1613 
L 953 1613 
Q 991 1019 1311 708 
Q 1631 397 2203 397 
Q 2534 397 2845 478 
Q 3156 559 3463 722 
L 3463 178 
Q 3153 47 2828 -22 
Q 2503 -91 2169 -91 
Q 1331 -91 842 396 
Q 353 884 353 1716 
Q 353 2575 817 3079 
Q 1281 3584 2069 3584 
Q 2775 3584 3186 3129 
Q 3597 2675 3597 1894 
z
M 3022 2063 
Q 3016 2534 2758 2815 
Q 2500 3097 2075 3097 
Q 1594 3097 1305 2825 
Q 1016 2553 972 2059 
L 3022 2063 
z
" transform="scale(0.015625)"/>
       <path id="DejaVuSans-20" transform="scale(0.015625)"/>
       <path id="DejaVuSans-6e" d="M 3513 2113 
L 3513 0 
L 2938 0 
L 2938 2094 
Q 2938 2591 2744 2837 
Q 2550 3084 2163 3084 
Q 1697 3084 1428 2787 
Q 1159 2491 1159 1978 
L 1159 0 
L 581 0 
L 581 3500 
L 1159 3500 
L 1159 2956 
Q 1366 3272 1645 3428 
Q 1925 3584 2291 3584 
Q 2894 3584 3203 3211 
Q 3513 2838 3513 2113 
z
" transform="scale(0.015625)"/>
       <path id="DejaVuSans-75" d="M 544 1381 
L 544 3500 
L 1119 3500 
L 1119 1403 
Q 1119 906 1312 657 
Q 1506 409 1894 409 
Q 2359 409 2629 706 
Q 2900 1003 2900 1516 
L 2900 3500 
L 3475 3500 
L 3475 0 
L 2900 0 
L 2900 538 
Q 2691 219 2414 64 
Q 2138 -91 1772 -91 
Q 1169 -91 856 284 
Q 544 659 544 1381 
z
M 1991 3584 
L 1991 3584 
z
" transform="scale(0.015625)"/>
      </defs>
      <use xlink:href="#DejaVuSans-70"/>
      <use xlink:href="#DejaVuSans-72" x="63.476562"/>
      <use xlink:href="#DejaVuSans-69" x="104.589844"/>
      <use xlink:href="#DejaVuSans-76" x="132.373047"/>
      <use xlink:href="#DejaVuSans-61" x="191.552734"/>
      <use xlink:href="#DejaVuSans-74" x="252.832031"/>
      <use xlink:href="#DejaVuSans-65" x="292.041016"/>
      <use xlink:href="#DejaVuSans-20" x="353.564453"/>
      <use xlink:href="#DejaVuSans-6e" x="385.351562"/>
      <use xlink:href="#DejaVuSans-75" x="448.730469"/>
      <use xlink:href="#DejaVuSans-74" x="512.109375"/>
      <use xlink:href="#DejaVuSans-72" x="551.318359"/>
      <use xlink:href="#DejaVuSans-69" x="592.431641"/>
      <use xlink:href="#DejaVuSans-65" x="620.214844"/>
      <use xlink:href="#DejaVuSans-6e" x="681.738281"/>
      <use xlink:href="#DejaVuSans-74" x="745.117188"/>
     </g>
    </g>
   </g>
   <g id="matplotlib.axis_2">
    <g id="ytick_1">
     <g id="line2d_3">
      <defs>
       <path id="m3617273e11" d="M 0 0 
L -3.5 0 
" style="stroke: #000000; stroke-width: 0.8"/>
      </defs>
      <g>
       <use xlink:href="#m3617273e11" x="30.040865" y="31.276802" style="stroke: #000000; stroke-width: 0.8"/>
      </g>
     </g>
     <g id="text_4">
      <!-- 0 -->
      <g transform="translate(16.678365 35.076021) scale(0.1 -0.1)">
       <use xlink:href="#DejaVuSans-30"/>
      </g>
     </g>
    </g>
    <g id="ytick_2">
     <g id="line2d_4">
      <g>
       <use xlink:href="#m3617273e11" x="30.040865" y="207.120854" style="stroke: #000000; stroke-width: 0.8"/>
      </g>
     </g>
     <g id="text_5">
      <!-- 1 -->
      <g transform="translate(16.678365 210.920073) scale(0.1 -0.1)">
       <use xlink:href="#DejaVuSans-31"/>
      </g>
     </g>
    </g>
    <g id="text_6">
     <!-- toxin potency -->
     <g transform="translate(10.598677 153.316016) rotate(-90) scale(0.1 -0.1)">
      <defs>
       <path id="DejaVuSans-6f" d="M 1959 3097 
Q 1497 3097 1228 2736 
Q 959 2375 959 1747 
Q 959 1119 1226 758 
Q 1494 397 1959 397 
Q 2419 397 2687 759 
Q 2956 1122 2956 1747 
Q 2956 2369 2687 2733 
Q 2419 3097 1959 3097 
z
M 1959 3584 
Q 2709 3584 3137 3096 
Q 3566 2609 3566 1747 
Q 3566 888 3137 398 
Q 2709 -91 1959 -91 
Q 1206 -91 779 398 
Q 353 888 353 1747 
Q 353 2609 779 3096 
Q 1206 3584 1959 3584 
z
" transform="scale(0.015625)"/>
       <path id="DejaVuSans-78" d="M 3513 3500 
L 2247 1797 
L 3578 0 
L 2900 0 
L 1881 1375 
L 863 0 
L 184 0 
L 1544 1831 
L 300 3500 
L 978 3500 
L 1906 2253 
L 2834 3500 
L 3513 3500 
z
" transform="scale(0.015625)"/>
       <path id="DejaVuSans-63" d="M 3122 3366 
L 3122 2828 
Q 2878 2963 2633 3030 
Q 2388 3097 2138 3097 
Q 1578 3097 1268 2742 
Q 959 2388 959 1747 
Q 959 1106 1268 751 
Q 1578 397 2138 397 
Q 2388 397 2633 464 
Q 2878 531 3122 666 
L 3122 134 
Q 2881 22 2623 -34 
Q 2366 -91 2075 -91 
Q 1284 -91 818 406 
Q 353 903 353 1747 
Q 353 2603 823 3093 
Q 1294 3584 2113 3584 
Q 2378 3584 2631 3529 
Q 2884 3475 3122 3366 
z
" transform="scale(0.015625)"/>
       <path id="DejaVuSans-79" d="M 2059 -325 
Q 1816 -950 1584 -1140 
Q 1353 -1331 966 -1331 
L 506 -1331 
L 506 -850 
L 844 -850 
Q 1081 -850 1212 -737 
Q 1344 -625 1503 -206 
L 1606 56 
L 191 3500 
L 800 3500 
L 1894 763 
L 2988 3500 
L 3597 3500 
L 2059 -325 
z
" transform="scale(0.015625)"/>
      </defs>
      <use xlink:href="#DejaVuSans-74"/>
      <use xlink:href="#DejaVuSans-6f" x="39.208984"/>
      <use xlink:href="#DejaVuSans-78" x="97.265625"/>
      <use xlink:href="#DejaVuSans-69" x="156.445312"/>
      <use xlink:href="#DejaVuSans-6e" x="184.228516"/>
      <use xlink:href="#DejaVuSans-20" x="247.607422"/>
      <use xlink:href="#DejaVuSans-70" x="279.394531"/>
      <use xlink:href="#DejaVuSans-6f" x="342.871094"/>
      <use xlink:href="#DejaVuSans-74" x="404.052734"/>
      <use xlink:href="#DejaVuSans-65" x="443.261719"/>
      <use xlink:href="#DejaVuSans-6e" x="504.785156"/>
      <use xlink:href="#DejaVuSans-63" x="568.164062"/>
      <use xlink:href="#DejaVuSans-79" x="623.144531"/>
     </g>
    </g>
   </g>
   <g id="line2d_5">
    <path d="M 30.040865 128.337696 
L 31.856801 127.962052 
L 33.672737 127.586409 
L 35.488672 127.221498 
L 37.304608 126.856588 
L 39.120544 126.491677 
L 40.93648 126.137499 
L 42.752416 125.772588 
L 44.568351 125.429143 
L 46.384287 125.074964 
L 48.200223 124.731519 
L 50.016159 124.388074 
L 51.832095 124.044628 
L 53.648031 123.711915 
L 55.463966 123.379203 
L 57.279902 123.04649 
L 59.095838 122.72451 
L 60.911774 122.40253 
L 62.72771 122.08055 
L 64.543645 121.75857 
L 66.359581 121.447322 
L 68.175517 121.136075 
L 69.991453 120.824828 
L 71.807389 120.524313 
L 73.623324 120.223798 
L 75.43926 119.923283 
L 77.255196 119.622769 
L 79.071132 119.332986 
L 80.887068 119.043204 
L 82.703003 118.753422 
L 84.518939 118.46364 
L 86.334875 118.184591 
L 88.150811 117.905541 
L 89.966747 117.626492 
L 91.782682 117.347443 
L 93.598618 117.079126 
L 95.414554 116.810809 
L 97.23049 116.542493 
L 99.046426 116.274176 
L 100.862362 116.016592 
L 102.678297 115.759008 
L 104.494233 115.501424 
L 106.310169 115.24384 
L 108.126105 114.996988 
L 109.942041 114.739404 
L 111.757976 114.492553 
L 113.573912 114.256434 
L 115.389848 114.009583 
L 117.205784 113.773464 
L 119.02172 113.526612 
L 120.837655 113.301226 
L 122.653591 113.065108 
L 124.469527 112.828989 
L 126.285463 112.603603 
L 128.101399 112.378217 
L 129.917334 112.152831 
L 131.73327 111.927445 
L 133.549206 111.702059 
L 135.365142 111.487405 
L 137.181078 111.272752 
L 138.997013 111.058099 
L 140.812949 110.843445 
L 142.628885 110.639524 
L 144.444821 110.424871 
L 146.260757 110.22095 
L 148.076693 110.01703 
L 149.892628 109.813109 
L 151.708564 109.609188 
L 153.5245 109.416 
L 155.340436 109.212079 
L 157.156372 109.018891 
L 158.972307 108.825703 
L 160.788243 108.632515 
L 162.604179 108.45006 
L 164.420115 108.256872 
L 166.236051 108.074417 
L 168.051986 107.881229 
L 169.867922 107.698773 
L 171.683858 107.52705 
L 173.499794 107.344595 
L 175.31573 107.16214 
L 177.131665 106.990417 
L 178.947601 106.807962 
L 180.763537 106.636239 
L 182.579473 106.464516 
L 184.395409 106.292793 
L 186.211344 106.131803 
L 188.02728 105.960081 
L 189.843216 105.799091 
L 191.659152 105.627368 
L 193.475088 105.466378 
L 195.291024 105.305388 
L 197.106959 105.144398 
L 198.922895 104.994141 
L 200.738831 104.83315 
L 202.554767 104.67216 
L 204.370703 104.521903 
L 206.186638 104.371646 
L 208.002574 104.221388 
L 209.81851 104.071131 
" clip-path="url(#p91565741ab)" style="fill: none; stroke-dasharray: 1.5,2.475; stroke-dashoffset: 0; stroke: #000000; stroke-width: 1.5"/>
   </g>
   <g id="line2d_6">
    <path d="M 30.040865 207.120854 
L 31.856801 207.120854 
L 33.672737 207.120854 
L 35.488672 207.120854 
L 37.304608 207.120854 
L 39.120544 207.120854 
L 40.93648 207.120854 
L 42.752416 207.120854 
L 44.568351 207.120854 
L 46.384287 207.120854 
L 48.200223 207.120854 
L 50.016159 207.120854 
L 51.832095 207.120854 
L 53.648031 207.120854 
L 55.463966 207.120854 
L 57.279902 207.120854 
L 59.095838 207.120854 
L 60.911774 207.120854 
L 62.72771 207.120854 
L 64.543645 207.120854 
L 66.359581 207.120854 
L 68.175517 207.120854 
L 69.991453 207.120854 
L 71.807389 207.120854 
L 73.623324 207.120854 
L 75.43926 207.120854 
L 77.255196 207.120854 
L 79.071132 207.120854 
L 80.887068 207.120854 
L 82.703003 207.120854 
L 84.518939 207.120854 
L 86.334875 207.120854 
L 88.150811 207.120854 
L 89.966747 207.120854 
L 91.782682 207.120854 
L 93.598618 207.120854 
L 95.414554 207.120854 
L 97.23049 207.120854 
L 99.046426 207.120854 
L 100.862362 207.120854 
L 102.678297 207.120854 
L 104.494233 207.120854 
L 106.310169 207.120854 
L 108.126105 207.120854 
L 109.942041 207.120854 
L 111.757976 207.120854 
L 113.573912 207.120854 
L 115.389848 207.120854 
L 117.205784 207.120854 
L 119.02172 207.120854 
L 120.837655 207.120854 
L 122.653591 207.120854 
L 124.469527 207.120854 
L 126.285463 207.120854 
L 128.101399 207.120854 
L 129.917334 207.120854 
L 131.73327 207.120854 
L 133.549206 207.120854 
L 135.365142 207.120854 
L 137.181078 207.120854 
L 138.997013 207.120854 
L 140.812949 207.120854 
L 142.628885 207.120854 
L 144.444821 207.120854 
L 146.260757 207.120854 
L 148.076693 207.120854 
L 149.892628 207.120854 
L 151.708564 207.120854 
L 153.5245 207.120854 
L 155.340436 207.120854 
L 157.156372 207.120854 
L 158.972307 207.120854 
L 160.788243 207.120854 
L 162.604179 207.120854 
L 164.420115 207.120854 
L 166.236051 207.120854 
L 168.051986 207.120854 
L 169.867922 207.120854 
L 171.683858 207.120854 
L 173.499794 207.120854 
L 175.31573 207.120854 
L 177.131665 207.120854 
L 178.947601 207.120854 
L 180.763537 207.120854 
L 182.579473 207.120854 
L 184.395409 207.120854 
L 186.211344 207.120854 
L 188.02728 207.120854 
L 189.843216 207.120854 
L 191.659152 207.120854 
L 193.475088 207.120854 
L 195.291024 207.120854 
L 197.106959 207.120854 
L 198.922895 207.120854 
L 200.738831 207.120854 
L 202.554767 207.120854 
L 204.370703 207.120854 
L 206.186638 207.120854 
L 208.002574 207.120854 
L 209.81851 207.120854 
" clip-path="url(#p91565741ab)" style="fill: none; stroke-dasharray: 1.5,2.475; stroke-dashoffset: 0; stroke: #000000; stroke-width: 1.5"/>
   </g>
   <g id="line2d_7">
    <path d="M 30.040865 128.337696 
L 31.856801 207.120854 
L 33.672737 207.120854 
L 35.488672 207.120854 
L 37.304608 207.120854 
L 39.120544 207.120854 
L 40.93648 207.120854 
L 42.752416 207.120854 
L 44.568351 207.120854 
L 46.384287 207.120854 
L 48.200223 207.120854 
L 50.016159 207.120854 
L 51.832095 207.120854 
L 53.648031 207.120854 
L 55.463966 207.120854 
L 57.279902 207.120854 
L 59.095838 207.120854 
L 60.911774 207.120854 
L 62.72771 207.120854 
L 64.543645 207.120854 
L 66.359581 207.120854 
L 68.175517 207.120854 
L 69.991453 207.120854 
L 71.807389 207.120854 
L 73.623324 207.120854 
L 75.43926 207.120854 
L 77.255196 207.120854 
L 79.071132 207.120854 
L 80.887068 207.120854 
L 82.703003 207.120854 
L 84.518939 207.120854 
L 86.334875 207.120854 
L 88.150811 207.120854 
L 89.966747 207.120854 
L 91.782682 207.120854 
L 93.598618 207.120854 
L 95.414554 207.120854 
L 97.23049 207.120854 
L 99.046426 207.120854 
L 100.862362 207.120854 
L 102.678297 207.120854 
L 104.494233 207.120854 
L 106.310169 207.120854 
L 108.126105 207.120854 
L 109.942041 207.120854 
L 111.757976 207.120854 
L 113.573912 207.120854 
L 115.389848 207.120854 
L 117.205784 207.120854 
L 119.02172 207.120854 
L 120.837655 207.120854 
L 122.653591 207.120854 
L 124.469527 207.120854 
L 126.285463 207.120854 
L 128.101399 207.120854 
L 129.917334 200.53036 
L 131.73327 187.546477 
L 133.549206 176.772505 
L 135.365142 167.645206 
L 137.181078 159.764263 
L 138.997013 152.892068 
L 140.812949 146.824071 
L 142.628885 141.420036 
L 144.444821 136.575988 
L 146.260757 132.192578 
L 148.076693 128.206216 
L 149.892628 124.572005 
L 151.708564 121.244644 
L 153.5245 118.17628 
L 155.340436 115.337354 
L 157.156372 112.713283 
L 158.972307 110.283572 
L 160.788243 108.632515 
L 162.604179 108.45006 
L 164.420115 108.256872 
L 166.236051 108.074417 
L 168.051986 107.881229 
L 169.867922 107.698773 
L 171.683858 107.52705 
L 173.499794 107.344595 
L 175.31573 107.16214 
L 177.131665 106.990417 
L 178.947601 106.807962 
L 180.763537 106.636239 
L 182.579473 106.464516 
L 184.395409 106.292793 
L 186.211344 106.131803 
L 188.02728 105.960081 
L 189.843216 105.799091 
L 191.659152 105.627368 
L 193.475088 105.466378 
L 195.291024 105.305388 
L 197.106959 105.144398 
L 198.922895 104.994141 
L 200.738831 104.83315 
L 202.554767 104.67216 
L 204.370703 104.521903 
L 206.186638 104.371646 
L 208.002574 104.221388 
L 209.81851 104.071131 
" clip-path="url(#p91565741ab)" style="fill: none; stroke: #000000; stroke-width: 1.5; stroke-linecap: square"/>
   </g>
   <g id="line2d_8">
    <path d="M 30.040865 207.120854 
L 31.856801 207.120854 
L 33.672737 207.120854 
L 35.488672 207.120854 
L 37.304608 207.120854 
L 39.120544 207.120854 
L 40.93648 207.120854 
L 42.752416 207.120854 
L 44.568351 207.120854 
L 46.384287 207.120854 
L 48.200223 207.120854 
L 50.016159 207.120854 
L 51.832095 207.120854 
L 53.648031 207.120854 
L 55.463966 207.120854 
L 57.279902 207.120854 
L 59.095838 207.120854 
L 60.911774 207.120854 
L 62.72771 207.120854 
L 64.543645 207.120854 
L 66.359581 207.120854 
L 68.175517 207.120854 
L 69.991453 207.120854 
L 71.807389 207.120854 
L 73.623324 207.120854 
L 75.43926 207.120854 
L 77.255196 207.120854 
L 79.071132 207.120854 
L 80.887068 207.120854 
L 82.703003 207.120854 
L 84.518939 207.120854 
L 86.334875 207.120854 
L 88.150811 207.120854 
L 89.966747 207.120854 
L 91.782682 207.120854 
L 93.598618 207.120854 
L 95.414554 207.120854 
L 97.23049 207.120854 
L 99.046426 207.120854 
L 100.862362 207.120854 
L 102.678297 207.120854 
L 104.494233 207.120854 
L 106.310169 207.120854 
L 108.126105 207.120854 
L 109.942041 207.120854 
L 111.757976 207.120854 
L 113.573912 207.120854 
L 115.389848 207.120854 
L 117.205784 207.120854 
L 119.02172 207.120854 
L 120.837655 207.120854 
L 122.653591 207.120854 
L 124.469527 207.120854 
L 126.285463 207.120854 
L 128.101399 207.120854 
L 129.917334 207.120854 
L 131.73327 207.120854 
L 133.549206 207.120854 
L 135.365142 207.120854 
L 137.181078 207.120854 
L 138.997013 207.120854 
L 140.812949 207.120854 
L 142.628885 207.120854 
L 144.444821 207.120854 
L 146.260757 207.120854 
L 148.076693 207.120854 
L 149.892628 207.120854 
L 151.708564 207.120854 
L 153.5245 207.120854 
L 155.340436 207.120854 
L 157.156372 207.120854 
L 158.972307 207.120854 
L 160.788243 207.120854 
L 162.604179 207.120854 
L 164.420115 207.120854 
L 166.236051 207.120854 
L 168.051986 207.120854 
L 169.867922 207.120854 
L 171.683858 207.120854 
L 173.499794 207.120854 
L 175.31573 207.120854 
L 177.131665 207.120854 
L 178.947601 207.120854 
L 180.763537 207.120854 
L 182.579473 207.120854 
L 184.395409 207.120854 
L 186.211344 207.120854 
L 188.02728 207.120854 
L 189.843216 207.120854 
L 191.659152 207.120854 
L 193.475088 207.120854 
L 195.291024 207.120854 
L 197.106959 207.120854 
L 198.922895 207.120854 
L 200.738831 207.120854 
L 202.554767 207.120854 
L 204.370703 207.120854 
L 206.186638 207.120854 
L 208.002574 207.120854 
L 209.81851 207.120854 
" clip-path="url(#p91565741ab)" style="fill: none; stroke: #000000; stroke-width: 1.5; stroke-linecap: square"/>
   </g>
   <g id="PolyCollection_3">
    <defs>
     <path id="m2764039c54" d="M 30.040865 -8.879146 
L 30.040865 -184.723198 
L 120.407002 -184.723198 
L 120.407002 -8.879146 
L 120.407002 -8.879146 
L 30.040865 -8.879146 
z
" style="stroke: #ffffff"/>
    </defs>
    <g clip-path="url(#p91565741ab)">
     <use xlink:href="#m2764039c54" x="0" y="216" style="fill: #ffffff; stroke: #ffffff"/>
    </g>
   </g>
   <g id="patch_3">
    <path d="M 30.040865 207.120854 
L 30.040865 31.276802 
" style="fill: none; stroke: #000000; stroke-width: 0.8; stroke-linejoin: miter; stroke-linecap: square"/>
   </g>
   <g id="patch_4">
    <path d="M 209.81851 207.120854 
L 209.81851 31.276802 
" style="fill: none; stroke: #000000; stroke-width: 0.8; stroke-linejoin: miter; stroke-linecap: square"/>
   </g>
   <g id="patch_5">
    <path d="M 30.040865 207.120854 
L 209.81851 207.120854 
" style="fill: none; stroke: #000000; stroke-width: 0.8; stroke-linejoin: miter; stroke-linecap: square"/>
   </g>
   <g id="patch_6">
    <path d="M 30.040865 31.276802 
L 209.81851 31.276802 
" style="fill: none; stroke: #000000; stroke-width: 0.8; stroke-linejoin: miter; stroke-linecap: square"/>
   </g>
   <g id="LineCollection_1">
    <path d="M 120.407002 31.276802 
L 120.407002 207.120854 
" clip-path="url(#p91565741ab)" style="fill: none; stroke: #000000; stroke-width: 1.5"/>
   </g>
  </g>
 </g>
 <defs>
  <clipPath id="p91565741ab">
   <rect x="30.040865" y="31.276802" width="179.777645" height="175.844051"/>
  </clipPath>
 </defs>
</svg>
