<?xml version="1.0" encoding="utf-8" standalone="no"?>
<!DOCTYPE svg PUBLIC "-//W3C//DTD SVG 1.1//EN"
  "http://www.w3.org/Graphics/SVG/1.1/DTD/svg11.dtd">
<svg xmlns:xlink="http://www.w3.org/1999/xlink" width="216pt" height="216pt" viewBox="0 0 216 216" xmlns="http://www.w3.org/2000/svg" version="1.1">
 <metadata>
  <rdf:RDF xmlns:dc="http://purl.org/dc/elements/1.1/" xmlns:cc="http://creativecommons.org/ns#" xmlns:rdf="http://www.w3.org/1999/02/22-rdf-syntax-ns#">
   <cc:Work>
    <dc:type rdf:resource="http://purl.org/dc/dcmitype/StillImage"/>
    <dc:date>2024-03-05T12:07:04.323436</dc:date>
    <dc:format>image/svg+xml</dc:format>
    <dc:creator>
     <cc:Agent>
      <dc:title>Matplotlib v3.8.2, https://matplotlib.org/</dc:title>
     </cc:Agent>
    </dc:creator>
   </cc:Work>
  </rdf:RDF>
 </metadata>
 <defs>
  <style type="text/css">*{stroke-linejoin: round; stroke-linecap: butt}</style>
 </defs>
 <g id="figure_1">
  <g id="patch_1">
   <path d="M 0 216 
L 216 216 
L 216 0 
L 0 0 
z
" style="fill: #ffffff"/>
  </g>
  <g id="axes_1">
   <g id="patch_2">
    <path d="M 30.040865 207.120854 
L 209.81851 207.120854 
L 209.81851 31.276802 
L 30.040865 31.276802 
z
" style="fill: #ffffff"/>
   </g>
   <g id="PolyCollection_1">
    <path d="M 30.040865 31.276802 
L 30.040865 -101.443094 
L 31.856801 -82.47964 
L 33.672737 -65.904443 
L 35.488672 -51.293063 
L 37.304608 -38.316011 
L 39.120544 -26.713605 
L 40.93648 -16.278408 
L 42.752416 -6.842723 
L 44.568351 1.730491 
L 46.384287 9.554318 
L 48.200223 16.722899 
L 50.016159 23.315241 
L 51.832095 29.39814 
L 53.648031 35.028452 
L 55.463966 40.254877 
L 57.279902 45.119368 
L 59.095838 49.658264 
L 60.911774 53.903196 
L 62.72771 57.881825 
L 64.543645 61.61845 
L 66.359581 65.134499 
L 68.175517 68.448942 
L 69.991453 71.578637 
L 71.807389 74.538612 
L 73.623324 77.342308 
L 75.43926 80.001782 
L 77.255196 82.527885 
L 79.071132 84.930403 
L 80.887068 87.21819 
L 82.703003 89.399271 
L 84.518939 91.480943 
L 86.334875 93.46985 
L 88.150811 95.372057 
L 89.966747 97.193113 
L 91.782682 98.938103 
L 93.598618 100.611695 
L 95.414554 102.218182 
L 97.23049 103.761523 
L 99.046426 105.245367 
L 100.862362 106.673091 
L 102.678297 108.047819 
L 104.494233 109.372448 
L 106.310169 110.649668 
L 108.126105 111.881979 
L 109.942041 113.071709 
L 111.757976 114.221027 
L 113.573912 115.331959 
L 115.389848 116.406395 
L 117.205784 117.446104 
L 119.02172 118.452745 
L 120.837655 119.427869 
L 122.653591 120.372934 
L 124.469527 121.289309 
L 126.285463 122.17828 
L 128.101399 123.04106 
L 129.917334 123.878787 
L 131.73327 124.692539 
L 133.549206 125.48333 
L 135.365142 126.252118 
L 137.181078 126.999808 
L 138.997013 127.727258 
L 140.812949 128.435279 
L 142.628885 129.124638 
L 144.444821 129.796063 
L 146.260757 130.450247 
L 148.076693 131.087843 
L 149.892628 131.709476 
L 151.708564 132.315738 
L 153.5245 132.907191 
L 155.340436 133.484371 
L 157.156372 134.047789 
L 158.972307 134.597932 
L 160.788243 135.135264 
L 162.604179 135.660225 
L 164.420115 136.17324 
L 166.236051 136.67471 
L 168.051986 137.165023 
L 169.867922 137.644544 
L 171.683858 138.113628 
L 173.499794 138.572611 
L 175.31573 139.021816 
L 177.131665 139.461553 
L 178.947601 139.892116 
L 180.763537 140.313791 
L 182.579473 140.72685 
L 184.395409 141.131554 
L 186.211344 141.528155 
L 188.02728 141.916893 
L 189.843216 142.297999 
L 191.659152 142.671697 
L 193.475088 143.0382 
L 195.291024 143.397714 
L 197.106959 143.750437 
L 198.922895 144.09656 
L 200.738831 144.436266 
L 202.554767 144.769732 
L 204.370703 145.097129 
L 206.186638 145.41862 
L 208.002574 145.734364 
L 209.81851 146.044513 
L 209.81851 31.276802 
L 209.81851 31.276802 
L 208.002574 31.276802 
L 206.186638 31.276802 
L 204.370703 31.276802 
L 202.554767 31.276802 
L 200.738831 31.276802 
L 198.922895 31.276802 
L 197.106959 31.276802 
L 195.291024 31.276802 
L 193.475088 31.276802 
L 191.659152 31.276802 
L 189.843216 31.276802 
L 188.02728 31.276802 
L 186.211344 31.276802 
L 184.395409 31.276802 
L 182.579473 31.276802 
L 180.763537 31.276802 
L 178.947601 31.276802 
L 177.131665 31.276802 
L 175.31573 31.276802 
L 173.499794 31.276802 
L 171.683858 31.276802 
L 169.867922 31.276802 
L 168.051986 31.276802 
L 166.236051 31.276802 
L 164.420115 31.276802 
L 162.604179 31.276802 
L 160.788243 31.276802 
L 158.972307 31.276802 
L 157.156372 31.276802 
L 155.340436 31.276802 
L 153.5245 31.276802 
L 151.708564 31.276802 
L 149.892628 31.276802 
L 148.076693 31.276802 
L 146.260757 31.276802 
L 144.444821 31.276802 
L 142.628885 31.276802 
L 140.812949 31.276802 
L 138.997013 31.276802 
L 137.181078 31.276802 
L 135.365142 31.276802 
L 133.549206 31.276802 
L 131.73327 31.276802 
L 129.917334 31.276802 
L 128.101399 31.276802 
L 126.285463 31.276802 
L 124.469527 31.276802 
L 122.653591 31.276802 
L 120.837655 31.276802 
L 119.02172 31.276802 
L 117.205784 31.276802 
L 115.389848 31.276802 
L 113.573912 31.276802 
L 111.757976 31.276802 
L 109.942041 31.276802 
L 108.126105 31.276802 
L 106.310169 31.276802 
L 104.494233 31.276802 
L 102.678297 31.276802 
L 100.862362 31.276802 
L 99.046426 31.276802 
L 97.23049 31.276802 
L 95.414554 31.276802 
L 93.598618 31.276802 
L 91.782682 31.276802 
L 89.966747 31.276802 
L 88.150811 31.276802 
L 86.334875 31.276802 
L 84.518939 31.276802 
L 82.703003 31.276802 
L 80.887068 31.276802 
L 79.071132 31.276802 
L 77.255196 31.276802 
L 75.43926 31.276802 
L 73.623324 31.276802 
L 71.807389 31.276802 
L 69.991453 31.276802 
L 68.175517 31.276802 
L 66.359581 31.276802 
L 64.543645 31.276802 
L 62.72771 31.276802 
L 60.911774 31.276802 
L 59.095838 31.276802 
L 57.279902 31.276802 
L 55.463966 31.276802 
L 53.648031 31.276802 
L 51.832095 31.276802 
L 50.016159 31.276802 
L 48.200223 31.276802 
L 46.384287 31.276802 
L 44.568351 31.276802 
L 42.752416 31.276802 
L 40.93648 31.276802 
L 39.120544 31.276802 
L 37.304608 31.276802 
L 35.488672 31.276802 
L 33.672737 31.276802 
L 31.856801 31.276802 
L 30.040865 31.276802 
z
" clip-path="url(#pf2d2dd090e)" style="fill: #d3d3d3; stroke: #d3d3d3"/>
   </g>
   <g id="PolyCollection_2">
    <defs>
     <path id="m3ba163383a" d="M 30.040865 -39.212245 
L 30.040865 -149.624051 
L 31.856801 -150.053001 
L 33.672737 -150.473257 
L 35.488672 -150.88505 
L 37.304608 -151.2886 
L 39.120544 -151.684122 
L 40.93648 -152.071826 
L 42.752416 -152.451913 
L 44.568351 -152.824578 
L 46.384287 -153.19001 
L 48.200223 -153.548393 
L 50.016159 -153.899905 
L 51.832095 -154.244718 
L 53.648031 -154.582999 
L 55.463966 -154.914912 
L 57.279902 -155.240612 
L 59.095838 -155.560253 
L 60.911774 -155.873984 
L 62.72771 -156.181947 
L 64.543645 -53.720113 
L 66.359581 -53.610023 
L 68.175517 -53.484155 
L 69.991453 -53.385737 
L 71.807389 -53.271609 
L 73.623324 -53.156204 
L 75.43926 -53.054088 
L 77.255196 -52.950822 
L 79.071132 -52.846435 
L 80.887068 -52.740955 
L 82.703003 -52.634409 
L 84.518939 -52.541517 
L 86.334875 -52.432944 
L 88.150811 -52.338136 
L 89.966747 -52.242418 
L 91.782682 -52.145813 
L 93.598618 -52.063183 
L 95.414554 -51.964893 
L 97.23049 -51.880674 
L 99.046426 -51.780778 
L 100.862362 -51.695042 
L 102.678297 -51.608589 
L 104.494233 -51.521434 
L 106.310169 -51.433593 
L 108.126105 -51.345081 
L 109.942041 -51.270991 
L 111.757976 -51.181208 
L 113.573912 -51.105924 
L 115.389848 -51.030073 
L 117.205784 -50.938499 
L 119.02172 -50.861532 
L 120.837655 -50.784036 
L 122.653591 -50.706023 
L 124.469527 -50.627504 
L 126.285463 -50.563771 
L 128.101399 -50.484294 
L 129.917334 -50.419665 
L 131.73327 -162.883825 
L 133.549206 -163.288951 
L 135.365142 -163.661622 
L 137.181078 -164.001753 
L 138.997013 -164.340108 
L 140.812949 -164.645838 
L 142.628885 -164.934325 
L 144.444821 -165.221026 
L 146.260757 -165.474982 
L 148.076693 -165.727148 
L 149.892628 -165.962027 
L 151.708564 -166.195149 
L 153.5245 -166.410981 
L 155.340436 -166.609504 
L 157.156372 -166.759497 
L 158.972307 -166.892079 
L 160.788243 -167.022869 
L 162.604179 -167.151902 
L 164.420115 -167.27921 
L 166.236051 -167.404825 
L 168.051986 -167.528778 
L 169.867922 -167.651101 
L 171.683858 -167.771823 
L 173.499794 -167.890972 
L 175.31573 -168.008579 
L 177.131665 -168.12467 
L 178.947601 -168.239274 
L 180.763537 -168.352416 
L 182.579473 -168.464122 
L 184.395409 -168.574419 
L 186.211344 -168.683331 
L 188.02728 -168.790883 
L 189.843216 -168.897098 
L 191.659152 -169.002 
L 193.475088 -169.105611 
L 195.291024 -169.207954 
L 197.106959 -169.30905 
L 198.922895 -169.408922 
L 200.738831 -169.507589 
L 202.554767 -169.605073 
L 204.370703 -169.701393 
L 206.186638 -169.796569 
L 208.002574 -169.89062 
L 209.81851 -169.983565 
L 209.81851 -38.852564 
L 209.81851 -38.852564 
L 208.002574 -38.85587 
L 206.186638 -38.859182 
L 204.370703 -38.8625 
L 202.554767 -38.865824 
L 200.738831 -38.869155 
L 198.922895 -38.872491 
L 197.106959 -38.875834 
L 195.291024 -38.879182 
L 193.475088 -38.882537 
L 191.659152 -38.885899 
L 189.843216 -38.889266 
L 188.02728 -38.89264 
L 186.211344 -38.89602 
L 184.395409 -38.899406 
L 182.579473 -38.902799 
L 180.763537 -38.906198 
L 178.947601 -38.909603 
L 177.131665 -38.913015 
L 175.31573 -38.916433 
L 173.499794 -38.919857 
L 171.683858 -38.923288 
L 169.867922 -38.926725 
L 168.051986 -38.930169 
L 166.236051 -38.933619 
L 164.420115 -38.937076 
L 162.604179 -38.940539 
L 160.788243 -38.944008 
L 158.972307 -38.947485 
L 157.156372 -38.950967 
L 155.340436 -38.954457 
L 153.5245 -38.957953 
L 151.708564 -38.961455 
L 149.892628 -38.964964 
L 148.076693 -38.96848 
L 146.260757 -38.972003 
L 144.444821 -38.975532 
L 142.628885 -38.979068 
L 140.812949 -38.98261 
L 138.997013 -38.98616 
L 137.181078 -38.989716 
L 135.365142 -38.993279 
L 133.549206 -38.996849 
L 131.73327 -39.000425 
L 129.917334 -39.004009 
L 128.101399 -39.007599 
L 126.285463 -39.011196 
L 124.469527 -39.0148 
L 122.653591 -39.018411 
L 120.837655 -39.022029 
L 119.02172 -39.025654 
L 117.205784 -39.029286 
L 115.389848 -39.032925 
L 113.573912 -39.036571 
L 111.757976 -39.040224 
L 109.942041 -39.043884 
L 108.126105 -39.047551 
L 106.310169 -39.051225 
L 104.494233 -39.054906 
L 102.678297 -39.058595 
L 100.862362 -39.062291 
L 99.046426 -39.065993 
L 97.23049 -39.069704 
L 95.414554 -39.073421 
L 93.598618 -39.077145 
L 91.782682 -39.080877 
L 89.966747 -39.084616 
L 88.150811 -39.088363 
L 86.334875 -39.092117 
L 84.518939 -39.095878 
L 82.703003 -39.099646 
L 80.887068 -39.103422 
L 79.071132 -39.107206 
L 77.255196 -39.110996 
L 75.43926 -39.114795 
L 73.623324 -39.1186 
L 71.807389 -39.122414 
L 69.991453 -39.126234 
L 68.175517 -39.130063 
L 66.359581 -39.133899 
L 64.543645 -39.137742 
L 62.72771 -39.141593 
L 60.911774 -39.145452 
L 59.095838 -39.149319 
L 57.279902 -39.153193 
L 55.463966 -39.157075 
L 53.648031 -39.160965 
L 51.832095 -39.164862 
L 50.016159 -39.168767 
L 48.200223 -39.17268 
L 46.384287 -39.176601 
L 44.568351 -39.18053 
L 42.752416 -39.184466 
L 40.93648 -39.188411 
L 39.120544 -39.192363 
L 37.304608 -39.196324 
L 35.488672 -39.200292 
L 33.672737 -39.204268 
L 31.856801 -39.208253 
L 30.040865 -39.212245 
z
" style="stroke: #a9a9a9"/>
    </defs>
    <g clip-path="url(#pf2d2dd090e)">
     <use xlink:href="#m3ba163383a" x="0" y="216" style="fill: #a9a9a9; stroke: #a9a9a9"/>
    </g>
   </g>
   <g id="matplotlib.axis_1">
    <g id="xtick_1">
     <g id="line2d_1">
      <defs>
       <path id="mdc39b5d7e5" d="M 0 0 
L 0 -3.5 
" style="stroke: #000000; stroke-width: 0.8"/>
      </defs>
      <g>
       <use xlink:href="#mdc39b5d7e5" x="30.040865" y="31.276802" style="stroke: #000000; stroke-width: 0.8"/>
      </g>
     </g>
     <g id="text_1">
      <!-- 0 -->
      <g transform="translate(26.859615 22.197115) scale(0.1 -0.1)">
       <defs>
        <path id="DejaVuSans-30" d="M 2034 4250 
Q 1547 4250 1301 3770 
Q 1056 3291 1056 2328 
Q 1056 1369 1301 889 
Q 1547 409 2034 409 
Q 2525 409 2770 889 
Q 3016 1369 3016 2328 
Q 3016 3291 2770 3770 
Q 2525 4250 2034 4250 
z
M 2034 4750 
Q 2819 4750 3233 4129 
Q 3647 3509 3647 2328 
Q 3647 1150 3233 529 
Q 2819 -91 2034 -91 
Q 1250 -91 836 529 
Q 422 1150 422 2328 
Q 422 3509 836 4129 
Q 1250 4750 2034 4750 
z
" transform="scale(0.015625)"/>
       </defs>
       <use xlink:href="#DejaVuSans-30"/>
      </g>
     </g>
    </g>
    <g id="xtick_2">
     <g id="line2d_2">
      <g>
       <use xlink:href="#mdc39b5d7e5" x="209.81851" y="31.276802" style="stroke: #000000; stroke-width: 0.8"/>
      </g>
     </g>
     <g id="text_2">
      <!-- 1 -->
      <g transform="translate(206.63726 22.197115) scale(0.1 -0.1)">
       <defs>
        <path id="DejaVuSans-31" d="M 794 531 
L 1825 531 
L 1825 4091 
L 703 3866 
L 703 4441 
L 1819 4666 
L 2450 4666 
L 2450 531 
L 3481 531 
L 3481 0 
L 794 0 
L 794 531 
z
" transform="scale(0.015625)"/>
       </defs>
       <use xlink:href="#DejaVuSans-31"/>
      </g>
     </g>
    </g>
    <g id="text_3">
     <!-- private nutrient -->
     <g transform="translate(80.714062 10.598677) scale(0.1 -0.1)">
      <defs>
       <path id="DejaVuSans-70" d="M 1159 525 
L 1159 -1331 
L 581 -1331 
L 581 3500 
L 1159 3500 
L 1159 2969 
Q 1341 3281 1617 3432 
Q 1894 3584 2278 3584 
Q 2916 3584 3314 3078 
Q 3713 2572 3713 1747 
Q 3713 922 3314 415 
Q 2916 -91 2278 -91 
Q 1894 -91 1617 61 
Q 1341 213 1159 525 
z
M 3116 1747 
Q 3116 2381 2855 2742 
Q 2594 3103 2138 3103 
Q 1681 3103 1420 2742 
Q 1159 2381 1159 1747 
Q 1159 1113 1420 752 
Q 1681 391 2138 391 
Q 2594 391 2855 752 
Q 3116 1113 3116 1747 
z
" transform="scale(0.015625)"/>
       <path id="DejaVuSans-72" d="M 2631 2963 
Q 2534 3019 2420 3045 
Q 2306 3072 2169 3072 
Q 1681 3072 1420 2755 
Q 1159 2438 1159 1844 
L 1159 0 
L 581 0 
L 581 3500 
L 1159 3500 
L 1159 2956 
Q 1341 3275 1631 3429 
Q 1922 3584 2338 3584 
Q 2397 3584 2469 3576 
Q 2541 3569 2628 3553 
L 2631 2963 
z
" transform="scale(0.015625)"/>
       <path id="DejaVuSans-69" d="M 603 3500 
L 1178 3500 
L 1178 0 
L 603 0 
L 603 3500 
z
M 603 4863 
L 1178 4863 
L 1178 4134 
L 603 4134 
L 603 4863 
z
" transform="scale(0.015625)"/>
       <path id="DejaVuSans-76" d="M 191 3500 
L 800 3500 
L 1894 563 
L 2988 3500 
L 3597 3500 
L 2284 0 
L 1503 0 
L 191 3500 
z
" transform="scale(0.015625)"/>
       <path id="DejaVuSans-61" d="M 2194 1759 
Q 1497 1759 1228 1600 
Q 959 1441 959 1056 
Q 959 750 1161 570 
Q 1363 391 1709 391 
Q 2188 391 2477 730 
Q 2766 1069 2766 1631 
L 2766 1759 
L 2194 1759 
z
M 3341 1997 
L 3341 0 
L 2766 0 
L 2766 531 
Q 2569 213 2275 61 
Q 1981 -91 1556 -91 
Q 1019 -91 701 211 
Q 384 513 384 1019 
Q 384 1609 779 1909 
Q 1175 2209 1959 2209 
L 2766 2209 
L 2766 2266 
Q 2766 2663 2505 2880 
Q 2244 3097 1772 3097 
Q 1472 3097 1187 3025 
Q 903 2953 641 2809 
L 641 3341 
Q 956 3463 1253 3523 
Q 1550 3584 1831 3584 
Q 2591 3584 2966 3190 
Q 3341 2797 3341 1997 
z
" transform="scale(0.015625)"/>
       <path id="DejaVuSans-74" d="M 1172 4494 
L 1172 3500 
L 2356 3500 
L 2356 3053 
L 1172 3053 
L 1172 1153 
Q 1172 725 1289 603 
Q 1406 481 1766 481 
L 2356 481 
L 2356 0 
L 1766 0 
Q 1100 0 847 248 
Q 594 497 594 1153 
L 594 3053 
L 172 3053 
L 172 3500 
L 594 3500 
L 594 4494 
L 1172 4494 
z
" transform="scale(0.015625)"/>
       <path id="DejaVuSans-65" d="M 3597 1894 
L 3597 1613 
L 953 1613 
Q 991 1019 1311 708 
Q 1631 397 2203 397 
Q 2534 397 2845 478 
Q 3156 559 3463 722 
L 3463 178 
Q 3153 47 2828 -22 
Q 2503 -91 2169 -91 
Q 1331 -91 842 396 
Q 353 884 353 1716 
Q 353 2575 817 3079 
Q 1281 3584 2069 3584 
Q 2775 3584 3186 3129 
Q 3597 2675 3597 1894 
z
M 3022 2063 
Q 3016 2534 2758 2815 
Q 2500 3097 2075 3097 
Q 1594 3097 1305 2825 
Q 1016 2553 972 2059 
L 3022 2063 
z
" transform="scale(0.015625)"/>
       <path id="DejaVuSans-20" transform="scale(0.015625)"/>
       <path id="DejaVuSans-6e" d="M 3513 2113 
L 3513 0 
L 2938 0 
L 2938 2094 
Q 2938 2591 2744 2837 
Q 2550 3084 2163 3084 
Q 1697 3084 1428 2787 
Q 1159 2491 1159 1978 
L 1159 0 
L 581 0 
L 581 3500 
L 1159 3500 
L 1159 2956 
Q 1366 3272 1645 3428 
Q 1925 3584 2291 3584 
Q 2894 3584 3203 3211 
Q 3513 2838 3513 2113 
z
" transform="scale(0.015625)"/>
       <path id="DejaVuSans-75" d="M 544 1381 
L 544 3500 
L 1119 3500 
L 1119 1403 
Q 1119 906 1312 657 
Q 1506 409 1894 409 
Q 2359 409 2629 706 
Q 2900 1003 2900 1516 
L 2900 3500 
L 3475 3500 
L 3475 0 
L 2900 0 
L 2900 538 
Q 2691 219 2414 64 
Q 2138 -91 1772 -91 
Q 1169 -91 856 284 
Q 544 659 544 1381 
z
M 1991 3584 
L 1991 3584 
z
" transform="scale(0.015625)"/>
      </defs>
      <use xlink:href="#DejaVuSans-70"/>
      <use xlink:href="#DejaVuSans-72" x="63.476562"/>
      <use xlink:href="#DejaVuSans-69" x="104.589844"/>
      <use xlink:href="#DejaVuSans-76" x="132.373047"/>
      <use xlink:href="#DejaVuSans-61" x="191.552734"/>
      <use xlink:href="#DejaVuSans-74" x="252.832031"/>
      <use xlink:href="#DejaVuSans-65" x="292.041016"/>
      <use xlink:href="#DejaVuSans-20" x="353.564453"/>
      <use xlink:href="#DejaVuSans-6e" x="385.351562"/>
      <use xlink:href="#DejaVuSans-75" x="448.730469"/>
      <use xlink:href="#DejaVuSans-74" x="512.109375"/>
      <use xlink:href="#DejaVuSans-72" x="551.318359"/>
      <use xlink:href="#DejaVuSans-69" x="592.431641"/>
      <use xlink:href="#DejaVuSans-65" x="620.214844"/>
      <use xlink:href="#DejaVuSans-6e" x="681.738281"/>
      <use xlink:href="#DejaVuSans-74" x="745.117188"/>
     </g>
    </g>
   </g>
   <g id="matplotlib.axis_2">
    <g id="ytick_1">
     <g id="line2d_3">
      <defs>
       <path id="mc886d6ef5d" d="M 0 0 
L -3.5 0 
" style="stroke: #000000; stroke-width: 0.8"/>
      </defs>
      <g>
       <use xlink:href="#mc886d6ef5d" x="30.040865" y="31.276802" style="stroke: #000000; stroke-width: 0.8"/>
      </g>
     </g>
     <g id="text_4">
      <!-- 0 -->
      <g transform="translate(16.678365 35.076021) scale(0.1 -0.1)">
       <use xlink:href="#DejaVuSans-30"/>
      </g>
     </g>
    </g>
    <g id="ytick_2">
     <g id="line2d_4">
      <g>
       <use xlink:href="#mc886d6ef5d" x="30.040865" y="207.120854" style="stroke: #000000; stroke-width: 0.8"/>
      </g>
     </g>
     <g id="text_5">
      <!-- 1 -->
      <g transform="translate(16.678365 210.920073) scale(0.1 -0.1)">
       <use xlink:href="#DejaVuSans-31"/>
      </g>
     </g>
    </g>
    <g id="text_6">
     <!-- toxin investment -->
     <g transform="translate(10.598677 161.402734) rotate(-90) scale(0.1 -0.1)">
      <defs>
       <path id="DejaVuSans-6f" d="M 1959 3097 
Q 1497 3097 1228 2736 
Q 959 2375 959 1747 
Q 959 1119 1226 758 
Q 1494 397 1959 397 
Q 2419 397 2687 759 
Q 2956 1122 2956 1747 
Q 2956 2369 2687 2733 
Q 2419 3097 1959 3097 
z
M 1959 3584 
Q 2709 3584 3137 3096 
Q 3566 2609 3566 1747 
Q 3566 888 3137 398 
Q 2709 -91 1959 -91 
Q 1206 -91 779 398 
Q 353 888 353 1747 
Q 353 2609 779 3096 
Q 1206 3584 1959 3584 
z
" transform="scale(0.015625)"/>
       <path id="DejaVuSans-78" d="M 3513 3500 
L 2247 1797 
L 3578 0 
L 2900 0 
L 1881 1375 
L 863 0 
L 184 0 
L 1544 1831 
L 300 3500 
L 978 3500 
L 1906 2253 
L 2834 3500 
L 3513 3500 
z
" transform="scale(0.015625)"/>
       <path id="DejaVuSans-73" d="M 2834 3397 
L 2834 2853 
Q 2591 2978 2328 3040 
Q 2066 3103 1784 3103 
Q 1356 3103 1142 2972 
Q 928 2841 928 2578 
Q 928 2378 1081 2264 
Q 1234 2150 1697 2047 
L 1894 2003 
Q 2506 1872 2764 1633 
Q 3022 1394 3022 966 
Q 3022 478 2636 193 
Q 2250 -91 1575 -91 
Q 1294 -91 989 -36 
Q 684 19 347 128 
L 347 722 
Q 666 556 975 473 
Q 1284 391 1588 391 
Q 1994 391 2212 530 
Q 2431 669 2431 922 
Q 2431 1156 2273 1281 
Q 2116 1406 1581 1522 
L 1381 1569 
Q 847 1681 609 1914 
Q 372 2147 372 2553 
Q 372 3047 722 3315 
Q 1072 3584 1716 3584 
Q 2034 3584 2315 3537 
Q 2597 3491 2834 3397 
z
" transform="scale(0.015625)"/>
       <path id="DejaVuSans-6d" d="M 3328 2828 
Q 3544 3216 3844 3400 
Q 4144 3584 4550 3584 
Q 5097 3584 5394 3201 
Q 5691 2819 5691 2113 
L 5691 0 
L 5113 0 
L 5113 2094 
Q 5113 2597 4934 2840 
Q 4756 3084 4391 3084 
Q 3944 3084 3684 2787 
Q 3425 2491 3425 1978 
L 3425 0 
L 2847 0 
L 2847 2094 
Q 2847 2600 2669 2842 
Q 2491 3084 2119 3084 
Q 1678 3084 1418 2786 
Q 1159 2488 1159 1978 
L 1159 0 
L 581 0 
L 581 3500 
L 1159 3500 
L 1159 2956 
Q 1356 3278 1631 3431 
Q 1906 3584 2284 3584 
Q 2666 3584 2933 3390 
Q 3200 3197 3328 2828 
z
" transform="scale(0.015625)"/>
      </defs>
      <use xlink:href="#DejaVuSans-74"/>
      <use xlink:href="#DejaVuSans-6f" x="39.208984"/>
      <use xlink:href="#DejaVuSans-78" x="97.265625"/>
      <use xlink:href="#DejaVuSans-69" x="156.445312"/>
      <use xlink:href="#DejaVuSans-6e" x="184.228516"/>
      <use xlink:href="#DejaVuSans-20" x="247.607422"/>
      <use xlink:href="#DejaVuSans-69" x="279.394531"/>
      <use xlink:href="#DejaVuSans-6e" x="307.177734"/>
      <use xlink:href="#DejaVuSans-76" x="370.556641"/>
      <use xlink:href="#DejaVuSans-65" x="429.736328"/>
      <use xlink:href="#DejaVuSans-73" x="491.259766"/>
      <use xlink:href="#DejaVuSans-74" x="543.359375"/>
      <use xlink:href="#DejaVuSans-6d" x="582.568359"/>
      <use xlink:href="#DejaVuSans-65" x="679.980469"/>
      <use xlink:href="#DejaVuSans-6e" x="741.503906"/>
      <use xlink:href="#DejaVuSans-74" x="804.882812"/>
     </g>
    </g>
   </g>
   <g id="line2d_5">
    <path d="M 30.040865 66.375949 
L 31.856801 65.946999 
L 33.672737 65.526743 
L 35.488672 65.11495 
L 37.304608 64.7114 
L 39.120544 64.315878 
L 40.93648 63.928174 
L 42.752416 63.548087 
L 44.568351 63.175422 
L 46.384287 62.80999 
L 48.200223 62.451607 
L 50.016159 62.100095 
L 51.832095 61.755282 
L 53.648031 61.417001 
L 55.463966 61.085088 
L 57.279902 60.759388 
L 59.095838 60.439747 
L 60.911774 60.126016 
L 62.72771 59.818053 
L 64.543645 59.515716 
L 66.359581 59.218871 
L 68.175517 58.927386 
L 69.991453 58.641133 
L 71.807389 58.359987 
L 73.623324 58.083827 
L 75.43926 57.812537 
L 77.255196 57.546002 
L 79.071132 57.284112 
L 80.887068 57.026758 
L 82.703003 56.773836 
L 84.518939 56.525245 
L 86.334875 56.280884 
L 88.150811 56.040658 
L 89.966747 55.804473 
L 91.782682 55.572238 
L 93.598618 55.343864 
L 95.414554 55.119265 
L 97.23049 54.898358 
L 99.046426 54.681059 
L 100.862362 54.467291 
L 102.678297 54.256976 
L 104.494233 54.050038 
L 106.310169 53.846404 
L 108.126105 53.646002 
L 109.942041 53.448764 
L 111.757976 53.254621 
L 113.573912 53.063507 
L 115.389848 52.875359 
L 117.205784 52.690113 
L 119.02172 52.507709 
L 120.837655 52.328087 
L 122.653591 52.151189 
L 124.469527 51.97696 
L 126.285463 51.805343 
L 128.101399 51.636286 
L 129.917334 51.469736 
L 131.73327 51.305642 
L 133.549206 51.143955 
L 135.365142 50.984625 
L 137.181078 50.827607 
L 138.997013 50.672853 
L 140.812949 50.520319 
L 142.628885 50.369961 
L 144.444821 50.221736 
L 146.260757 50.075602 
L 148.076693 49.931519 
L 149.892628 49.789446 
L 151.708564 49.649346 
L 153.5245 49.51118 
L 155.340436 49.374911 
L 157.156372 49.240503 
L 158.972307 49.107921 
L 160.788243 48.977131 
L 162.604179 48.848098 
L 164.420115 48.72079 
L 166.236051 48.595175 
L 168.051986 48.471222 
L 169.867922 48.348899 
L 171.683858 48.228177 
L 173.499794 48.109028 
L 175.31573 47.991421 
L 177.131665 47.87533 
L 178.947601 47.760726 
L 180.763537 47.647584 
L 182.579473 47.535878 
L 184.395409 47.425581 
L 186.211344 47.316669 
L 188.02728 47.209117 
L 189.843216 47.102902 
L 191.659152 46.998 
L 193.475088 46.894389 
L 195.291024 46.792046 
L 197.106959 46.69095 
L 198.922895 46.591078 
L 200.738831 46.492411 
L 202.554767 46.394927 
L 204.370703 46.298607 
L 206.186638 46.203431 
L 208.002574 46.10938 
L 209.81851 46.016435 
" clip-path="url(#pf2d2dd090e)" style="fill: none; stroke-dasharray: 1.5,2.475; stroke-dashoffset: 0; stroke: #000000; stroke-width: 1.5"/>
   </g>
   <g id="line2d_6">
    <path d="M 30.040865 159.68932 
L 31.856801 159.848903 
L 33.672737 160.005483 
L 35.488672 160.159157 
L 37.304608 160.310017 
L 39.120544 160.458151 
L 40.93648 160.603643 
L 42.752416 160.746573 
L 44.568351 160.887018 
L 46.384287 161.025051 
L 48.200223 161.160742 
L 50.016159 161.29416 
L 51.832095 161.425367 
L 53.648031 161.554427 
L 55.463966 161.681397 
L 57.279902 161.806337 
L 59.095838 161.929299 
L 60.911774 162.050338 
L 62.72771 162.169502 
L 64.543645 162.286842 
L 66.359581 162.402404 
L 68.175517 162.516234 
L 69.991453 162.628374 
L 71.807389 162.738867 
L 73.623324 162.847753 
L 75.43926 162.955071 
L 77.255196 163.060859 
L 79.071132 163.165154 
L 80.887068 163.26799 
L 82.703003 163.369401 
L 84.518939 163.469421 
L 86.334875 163.568081 
L 88.150811 163.665411 
L 89.966747 163.761442 
L 91.782682 163.856203 
L 93.598618 163.94972 
L 95.414554 164.042022 
L 97.23049 164.133134 
L 99.046426 164.223082 
L 100.862362 164.31189 
L 102.678297 164.399582 
L 104.494233 164.486181 
L 106.310169 164.571711 
L 108.126105 164.656191 
L 109.942041 164.739645 
L 111.757976 164.822092 
L 113.573912 164.903552 
L 115.389848 164.984046 
L 117.205784 165.06359 
L 119.02172 165.142205 
L 120.837655 165.219908 
L 122.653591 165.296715 
L 124.469527 165.372645 
L 126.285463 165.447714 
L 128.101399 165.521937 
L 129.917334 165.59533 
L 131.73327 165.667909 
L 133.549206 165.739688 
L 135.365142 165.810682 
L 137.181078 165.880904 
L 138.997013 165.950368 
L 140.812949 166.019088 
L 142.628885 166.087077 
L 144.444821 166.154347 
L 146.260757 166.220911 
L 148.076693 166.286781 
L 149.892628 166.351969 
L 151.708564 166.416485 
L 153.5245 166.480342 
L 155.340436 166.543551 
L 157.156372 166.606121 
L 158.972307 166.668064 
L 160.788243 166.72939 
L 162.604179 166.790109 
L 164.420115 166.85023 
L 166.236051 166.909763 
L 168.051986 166.968717 
L 169.867922 167.027102 
L 171.683858 167.084927 
L 173.499794 167.1422 
L 175.31573 167.198929 
L 177.131665 167.255123 
L 178.947601 167.310791 
L 180.763537 167.365939 
L 182.579473 167.420577 
L 184.395409 167.474711 
L 186.211344 167.52835 
L 188.02728 167.5815 
L 189.843216 167.634169 
L 191.659152 167.686363 
L 193.475088 167.73809 
L 195.291024 167.789356 
L 197.106959 167.840168 
L 198.922895 167.890533 
L 200.738831 167.940457 
L 202.554767 167.989945 
L 204.370703 168.039005 
L 206.186638 168.087642 
L 208.002574 168.135861 
L 209.81851 168.18367 
" clip-path="url(#pf2d2dd090e)" style="fill: none; stroke-dasharray: 1.5,2.475; stroke-dashoffset: 0; stroke: #000000; stroke-width: 1.5"/>
   </g>
   <g id="line2d_7">
    <path d="M 30.040865 66.375949 
L 31.856801 65.946999 
L 33.672737 65.526743 
L 35.488672 65.11495 
L 37.304608 64.7114 
L 39.120544 64.315878 
L 40.93648 63.928174 
L 42.752416 63.548087 
L 44.568351 63.175422 
L 46.384287 62.80999 
L 48.200223 62.451607 
L 50.016159 62.100095 
L 51.832095 61.755282 
L 53.648031 61.417001 
L 55.463966 61.085088 
L 57.279902 60.759388 
L 59.095838 60.439747 
L 60.911774 60.126016 
L 62.72771 59.818053 
L 64.543645 162.279887 
L 66.359581 162.389977 
L 68.175517 162.515845 
L 69.991453 162.614263 
L 71.807389 162.728391 
L 73.623324 162.843796 
L 75.43926 162.945912 
L 77.255196 163.049178 
L 79.071132 163.153565 
L 80.887068 163.259045 
L 82.703003 163.365591 
L 84.518939 163.458483 
L 86.334875 163.567056 
L 88.150811 163.661864 
L 89.966747 163.757582 
L 91.782682 163.854187 
L 93.598618 163.936817 
L 95.414554 164.035107 
L 97.23049 164.119326 
L 99.046426 164.219222 
L 100.862362 164.304958 
L 102.678297 164.391411 
L 104.494233 164.478566 
L 106.310169 164.566407 
L 108.126105 164.654919 
L 109.942041 164.729009 
L 111.757976 164.818792 
L 113.573912 164.894076 
L 115.389848 164.969927 
L 117.205784 165.061501 
L 119.02172 165.138468 
L 120.837655 165.215964 
L 122.653591 165.293977 
L 124.469527 165.372496 
L 126.285463 165.436229 
L 128.101399 165.515706 
L 129.917334 165.580335 
L 131.73327 53.116175 
L 133.549206 52.711049 
L 135.365142 52.338378 
L 137.181078 51.998247 
L 138.997013 51.659892 
L 140.812949 51.354162 
L 142.628885 51.065675 
L 144.444821 50.778974 
L 146.260757 50.525018 
L 148.076693 50.272852 
L 149.892628 50.037973 
L 151.708564 49.804851 
L 153.5245 49.589019 
L 155.340436 49.390496 
L 157.156372 49.240503 
L 158.972307 49.107921 
L 160.788243 48.977131 
L 162.604179 48.848098 
L 164.420115 48.72079 
L 166.236051 48.595175 
L 168.051986 48.471222 
L 169.867922 48.348899 
L 171.683858 48.228177 
L 173.499794 48.109028 
L 175.31573 47.991421 
L 177.131665 47.87533 
L 178.947601 47.760726 
L 180.763537 47.647584 
L 182.579473 47.535878 
L 184.395409 47.425581 
L 186.211344 47.316669 
L 188.02728 47.209117 
L 189.843216 47.102902 
L 191.659152 46.998 
L 193.475088 46.894389 
L 195.291024 46.792046 
L 197.106959 46.69095 
L 198.922895 46.591078 
L 200.738831 46.492411 
L 202.554767 46.394927 
L 204.370703 46.298607 
L 206.186638 46.203431 
L 208.002574 46.10938 
L 209.81851 46.016435 
" clip-path="url(#pf2d2dd090e)" style="fill: none; stroke: #000000; stroke-width: 1.5; stroke-linecap: square"/>
   </g>
   <g id="line2d_8">
    <path d="M 30.040865 176.787755 
L 31.856801 176.791747 
L 33.672737 176.795732 
L 35.488672 176.799708 
L 37.304608 176.803676 
L 39.120544 176.807637 
L 40.93648 176.811589 
L 42.752416 176.815534 
L 44.568351 176.81947 
L 46.384287 176.823399 
L 48.200223 176.82732 
L 50.016159 176.831233 
L 51.832095 176.835138 
L 53.648031 176.839035 
L 55.463966 176.842925 
L 57.279902 176.846807 
L 59.095838 176.850681 
L 60.911774 176.854548 
L 62.72771 176.858407 
L 64.543645 176.862258 
L 66.359581 176.866101 
L 68.175517 176.869937 
L 69.991453 176.873766 
L 71.807389 176.877586 
L 73.623324 176.8814 
L 75.43926 176.885205 
L 77.255196 176.889004 
L 79.071132 176.892794 
L 80.887068 176.896578 
L 82.703003 176.900354 
L 84.518939 176.904122 
L 86.334875 176.907883 
L 88.150811 176.911637 
L 89.966747 176.915384 
L 91.782682 176.919123 
L 93.598618 176.922855 
L 95.414554 176.926579 
L 97.23049 176.930296 
L 99.046426 176.934007 
L 100.862362 176.937709 
L 102.678297 176.941405 
L 104.494233 176.945094 
L 106.310169 176.948775 
L 108.126105 176.952449 
L 109.942041 176.956116 
L 111.757976 176.959776 
L 113.573912 176.963429 
L 115.389848 176.967075 
L 117.205784 176.970714 
L 119.02172 176.974346 
L 120.837655 176.977971 
L 122.653591 176.981589 
L 124.469527 176.9852 
L 126.285463 176.988804 
L 128.101399 176.992401 
L 129.917334 176.995991 
L 131.73327 176.999575 
L 133.549206 177.003151 
L 135.365142 177.006721 
L 137.181078 177.010284 
L 138.997013 177.01384 
L 140.812949 177.01739 
L 142.628885 177.020932 
L 144.444821 177.024468 
L 146.260757 177.027997 
L 148.076693 177.03152 
L 149.892628 177.035036 
L 151.708564 177.038545 
L 153.5245 177.042047 
L 155.340436 177.045543 
L 157.156372 177.049033 
L 158.972307 177.052515 
L 160.788243 177.055992 
L 162.604179 177.059461 
L 164.420115 177.062924 
L 166.236051 177.066381 
L 168.051986 177.069831 
L 169.867922 177.073275 
L 171.683858 177.076712 
L 173.499794 177.080143 
L 175.31573 177.083567 
L 177.131665 177.086985 
L 178.947601 177.090397 
L 180.763537 177.093802 
L 182.579473 177.097201 
L 184.395409 177.100594 
L 186.211344 177.10398 
L 188.02728 177.10736 
L 189.843216 177.110734 
L 191.659152 177.114101 
L 193.475088 177.117463 
L 195.291024 177.120818 
L 197.106959 177.124166 
L 198.922895 177.127509 
L 200.738831 177.130845 
L 202.554767 177.134176 
L 204.370703 177.1375 
L 206.186638 177.140818 
L 208.002574 177.14413 
L 209.81851 177.147436 
" clip-path="url(#pf2d2dd090e)" style="fill: none; stroke: #000000; stroke-width: 1.5; stroke-linecap: square"/>
   </g>
   <g id="PolyCollection_3">
    <path d="M 30.040865 207.120854 
L 30.040865 -101.443094 
L 31.856801 -82.47964 
L 33.672737 -65.904443 
L 35.488672 -51.293063 
L 37.304608 -38.316011 
L 39.120544 -26.713605 
L 40.93648 -16.278408 
L 42.752416 -6.842723 
L 44.568351 1.730491 
L 46.384287 9.554318 
L 48.200223 16.722899 
L 50.016159 23.315241 
L 51.832095 29.39814 
L 53.648031 35.028452 
L 55.463966 40.254877 
L 57.279902 45.119368 
L 59.095838 49.658264 
L 60.911774 53.903196 
L 62.72771 57.881825 
L 64.543645 61.61845 
L 66.359581 65.134499 
L 68.175517 68.448942 
L 69.991453 71.578637 
L 71.807389 74.538612 
L 73.623324 77.342308 
L 75.43926 80.001782 
L 77.255196 82.527885 
L 79.071132 84.930403 
L 80.887068 87.21819 
L 82.703003 89.399271 
L 84.518939 91.480943 
L 86.334875 93.46985 
L 88.150811 95.372057 
L 89.966747 97.193113 
L 91.782682 98.938103 
L 93.598618 100.611695 
L 95.414554 102.218182 
L 97.23049 103.761523 
L 99.046426 105.245367 
L 100.862362 106.673091 
L 102.678297 108.047819 
L 104.494233 109.372448 
L 106.310169 110.649668 
L 108.126105 111.881979 
L 109.942041 113.071709 
L 111.757976 114.221027 
L 113.573912 115.331959 
L 115.389848 116.406395 
L 117.205784 117.446104 
L 119.02172 118.452745 
L 120.837655 119.427869 
L 122.653591 120.372934 
L 124.469527 121.289309 
L 126.285463 122.17828 
L 128.101399 123.04106 
L 129.917334 123.878787 
L 131.73327 124.692539 
L 133.549206 125.48333 
L 135.365142 126.252118 
L 137.181078 126.999808 
L 138.997013 127.727258 
L 140.812949 128.435279 
L 142.628885 129.124638 
L 144.444821 129.796063 
L 146.260757 130.450247 
L 148.076693 131.087843 
L 149.892628 131.709476 
L 151.708564 132.315738 
L 153.5245 132.907191 
L 155.340436 133.484371 
L 157.156372 134.047789 
L 158.972307 134.597932 
L 160.788243 135.135264 
L 162.604179 135.660225 
L 164.420115 136.17324 
L 166.236051 136.67471 
L 168.051986 137.165023 
L 169.867922 137.644544 
L 171.683858 138.113628 
L 173.499794 138.572611 
L 175.31573 139.021816 
L 177.131665 139.461553 
L 178.947601 139.892116 
L 180.763537 140.313791 
L 182.579473 140.72685 
L 184.395409 141.131554 
L 186.211344 141.528155 
L 188.02728 141.916893 
L 189.843216 142.297999 
L 191.659152 142.671697 
L 193.475088 143.0382 
L 195.291024 143.397714 
L 197.106959 143.750437 
L 198.922895 144.09656 
L 200.738831 144.436266 
L 202.554767 144.769732 
L 204.370703 145.097129 
L 206.186638 145.41862 
L 208.002574 145.734364 
L 209.81851 146.044513 
L 209.81851 207.120854 
L 209.81851 207.120854 
L 208.002574 207.120854 
L 206.186638 207.120854 
L 204.370703 207.120854 
L 202.554767 207.120854 
L 200.738831 207.120854 
L 198.922895 207.120854 
L 197.106959 207.120854 
L 195.291024 207.120854 
L 193.475088 207.120854 
L 191.659152 207.120854 
L 189.843216 207.120854 
L 188.02728 207.120854 
L 186.211344 207.120854 
L 184.395409 207.120854 
L 182.579473 207.120854 
L 180.763537 207.120854 
L 178.947601 207.120854 
L 177.131665 207.120854 
L 175.31573 207.120854 
L 173.499794 207.120854 
L 171.683858 207.120854 
L 169.867922 207.120854 
L 168.051986 207.120854 
L 166.236051 207.120854 
L 164.420115 207.120854 
L 162.604179 207.120854 
L 160.788243 207.120854 
L 158.972307 207.120854 
L 157.156372 207.120854 
L 155.340436 207.120854 
L 153.5245 207.120854 
L 151.708564 207.120854 
L 149.892628 207.120854 
L 148.076693 207.120854 
L 146.260757 207.120854 
L 144.444821 207.120854 
L 142.628885 207.120854 
L 140.812949 207.120854 
L 138.997013 207.120854 
L 137.181078 207.120854 
L 135.365142 207.120854 
L 133.549206 207.120854 
L 131.73327 207.120854 
L 129.917334 207.120854 
L 128.101399 207.120854 
L 126.285463 207.120854 
L 124.469527 207.120854 
L 122.653591 207.120854 
L 120.837655 207.120854 
L 119.02172 207.120854 
L 117.205784 207.120854 
L 115.389848 207.120854 
L 113.573912 207.120854 
L 111.757976 207.120854 
L 109.942041 207.120854 
L 108.126105 207.120854 
L 106.310169 207.120854 
L 104.494233 207.120854 
L 102.678297 207.120854 
L 100.862362 207.120854 
L 99.046426 207.120854 
L 97.23049 207.120854 
L 95.414554 207.120854 
L 93.598618 207.120854 
L 91.782682 207.120854 
L 89.966747 207.120854 
L 88.150811 207.120854 
L 86.334875 207.120854 
L 84.518939 207.120854 
L 82.703003 207.120854 
L 80.887068 207.120854 
L 79.071132 207.120854 
L 77.255196 207.120854 
L 75.43926 207.120854 
L 73.623324 207.120854 
L 71.807389 207.120854 
L 69.991453 207.120854 
L 68.175517 207.120854 
L 66.359581 207.120854 
L 64.543645 207.120854 
L 62.72771 207.120854 
L 60.911774 207.120854 
L 59.095838 207.120854 
L 57.279902 207.120854 
L 55.463966 207.120854 
L 53.648031 207.120854 
L 51.832095 207.120854 
L 50.016159 207.120854 
L 48.200223 207.120854 
L 46.384287 207.120854 
L 44.568351 207.120854 
L 42.752416 207.120854 
L 40.93648 207.120854 
L 39.120544 207.120854 
L 37.304608 207.120854 
L 35.488672 207.120854 
L 33.672737 207.120854 
L 31.856801 207.120854 
L 30.040865 207.120854 
z
" clip-path="url(#pf2d2dd090e)" style="fill: #ffffff; stroke: #ffffff"/>
   </g>
   <g id="patch_3">
    <path d="M 30.040865 207.120854 
L 30.040865 31.276802 
" style="fill: none; stroke: #000000; stroke-width: 0.8; stroke-linejoin: miter; stroke-linecap: square"/>
   </g>
   <g id="patch_4">
    <path d="M 209.81851 207.120854 
L 209.81851 31.276802 
" style="fill: none; stroke: #000000; stroke-width: 0.8; stroke-linejoin: miter; stroke-linecap: square"/>
   </g>
   <g id="patch_5">
    <path d="M 30.040865 207.120854 
L 209.81851 207.120854 
" style="fill: none; stroke: #000000; stroke-width: 0.8; stroke-linejoin: miter; stroke-linecap: square"/>
   </g>
   <g id="patch_6">
    <path d="M 30.040865 31.276802 
L 209.81851 31.276802 
" style="fill: none; stroke: #000000; stroke-width: 0.8; stroke-linejoin: miter; stroke-linecap: square"/>
   </g>
   <g id="line2d_9">
    <path d="M 43.989992 -1 
L 44.568351 1.730491 
L 46.384287 9.554318 
L 48.200223 16.722899 
L 50.016159 23.315241 
L 51.832095 29.39814 
L 53.648031 35.028452 
L 55.463966 40.254877 
L 57.279902 45.119368 
L 59.095838 49.658264 
L 60.911774 53.903196 
L 62.72771 57.881825 
L 64.543645 61.61845 
L 66.359581 65.134499 
L 68.175517 68.448942 
L 69.991453 71.578637 
L 71.807389 74.538612 
L 73.623324 77.342308 
L 75.43926 80.001782 
L 77.255196 82.527885 
L 79.071132 84.930403 
L 80.887068 87.21819 
L 82.703003 89.399271 
L 84.518939 91.480943 
L 86.334875 93.46985 
L 88.150811 95.372057 
L 89.966747 97.193113 
L 91.782682 98.938103 
L 93.598618 100.611695 
L 95.414554 102.218182 
L 97.23049 103.761523 
L 99.046426 105.245367 
L 100.862362 106.673091 
L 102.678297 108.047819 
L 104.494233 109.372448 
L 106.310169 110.649668 
L 108.126105 111.881979 
L 109.942041 113.071709 
L 111.757976 114.221027 
L 113.573912 115.331959 
L 115.389848 116.406395 
L 117.205784 117.446104 
L 119.02172 118.452745 
L 120.837655 119.427869 
L 122.653591 120.372934 
L 124.469527 121.289309 
L 126.285463 122.17828 
L 128.101399 123.04106 
L 129.917334 123.878787 
L 131.73327 124.692539 
L 133.549206 125.48333 
L 135.365142 126.252118 
L 137.181078 126.999808 
L 138.997013 127.727258 
L 140.812949 128.435279 
L 142.628885 129.124638 
L 144.444821 129.796063 
L 146.260757 130.450247 
L 148.076693 131.087843 
L 149.892628 131.709476 
L 151.708564 132.315738 
L 153.5245 132.907191 
L 155.340436 133.484371 
L 157.156372 134.047789 
L 158.972307 134.597932 
L 160.788243 135.135264 
L 162.604179 135.660225 
L 164.420115 136.17324 
L 166.236051 136.67471 
L 168.051986 137.165023 
L 169.867922 137.644544 
L 171.683858 138.113628 
L 173.499794 138.572611 
L 175.31573 139.021816 
L 177.131665 139.461553 
L 178.947601 139.892116 
L 180.763537 140.313791 
L 182.579473 140.72685 
L 184.395409 141.131554 
L 186.211344 141.528155 
L 188.02728 141.916893 
L 189.843216 142.297999 
L 191.659152 142.671697 
L 193.475088 143.0382 
L 195.291024 143.397714 
L 197.106959 143.750437 
L 198.922895 144.09656 
L 200.738831 144.436266 
L 202.554767 144.769732 
L 204.370703 145.097129 
L 206.186638 145.41862 
L 208.002574 145.734364 
L 209.81851 146.044513 
" clip-path="url(#pf2d2dd090e)" style="fill: none; stroke: #000000; stroke-width: 1.5; stroke-linecap: square"/>
   </g>
  </g>
 </g>
 <defs>
  <clipPath id="pf2d2dd090e">
   <rect x="30.040865" y="31.276802" width="179.777645" height="175.844051"/>
  </clipPath>
 </defs>
</svg>
