<?xml version="1.0" encoding="utf-8" standalone="no"?>
<!DOCTYPE svg PUBLIC "-//W3C//DTD SVG 1.1//EN"
  "http://www.w3.org/Graphics/SVG/1.1/DTD/svg11.dtd">
<svg xmlns:xlink="http://www.w3.org/1999/xlink" width="216pt" height="216pt" viewBox="0 0 216 216" xmlns="http://www.w3.org/2000/svg" version="1.1">
 <metadata>
  <rdf:RDF xmlns:dc="http://purl.org/dc/elements/1.1/" xmlns:cc="http://creativecommons.org/ns#" xmlns:rdf="http://www.w3.org/1999/02/22-rdf-syntax-ns#">
   <cc:Work>
    <dc:type rdf:resource="http://purl.org/dc/dcmitype/StillImage"/>
    <dc:date>2024-03-05T12:07:07.196408</dc:date>
    <dc:format>image/svg+xml</dc:format>
    <dc:creator>
     <cc:Agent>
      <dc:title>Matplotlib v3.8.2, https://matplotlib.org/</dc:title>
     </cc:Agent>
    </dc:creator>
   </cc:Work>
  </rdf:RDF>
 </metadata>
 <defs>
  <style type="text/css">*{stroke-linejoin: round; stroke-linecap: butt}</style>
 </defs>
 <g id="figure_1">
  <g id="patch_1">
   <path d="M 0 216 
L 216 216 
L 216 0 
L 0 0 
z
" style="fill: #ffffff"/>
  </g>
  <g id="axes_1">
   <g id="patch_2">
    <path d="M 30.040865 207.120854 
L 209.81851 207.120854 
L 209.81851 31.276802 
L 30.040865 31.276802 
z
" style="fill: #ffffff"/>
   </g>
   <g id="PolyCollection_1">
    <defs>
     <path id="m32ae24f32f" d="M 30.040865 -184.723198 
L 30.040865 -184.723198 
L 31.856801 -180.361992 
L 33.672737 -176.233996 
L 35.488672 -172.32126 
L 37.304608 -168.607627 
L 39.120544 -165.07851 
L 40.93648 -161.720709 
L 42.752416 -158.522248 
L 44.568351 -155.472238 
L 46.384287 -152.560755 
L 48.200223 -149.778739 
L 50.016159 -147.117896 
L 51.832095 -144.570625 
L 53.648031 -142.129943 
L 55.463966 -139.789426 
L 57.279902 -137.543152 
L 59.095838 -135.385656 
L 60.911774 -133.311882 
L 62.72771 -131.317151 
L 64.543645 -129.397124 
L 66.359581 -127.54777 
L 68.175517 -125.765342 
L 69.991453 -124.046353 
L 71.807389 -122.387549 
L 73.623324 -120.785895 
L 75.43926 -119.238556 
L 77.255196 -117.742878 
L 79.071132 -116.296378 
L 80.887068 -114.896725 
L 82.703003 -113.541736 
L 84.518939 -112.229356 
L 86.334875 -110.957656 
L 88.150811 -109.724821 
L 89.966747 -108.529138 
L 91.782682 -107.368996 
L 93.598618 -106.242873 
L 95.414554 -105.149332 
L 97.23049 -104.087015 
L 99.046426 -103.054637 
L 100.862362 -102.050985 
L 102.678297 -101.074905 
L 104.494233 -100.125307 
L 106.310169 -99.201156 
L 108.126105 -98.301469 
L 109.942041 -97.425313 
L 111.757976 -96.571802 
L 113.573912 -95.740092 
L 115.389848 -94.929381 
L 117.205784 -94.138905 
L 119.02172 -93.367936 
L 120.837655 -92.61578 
L 122.653591 -91.881776 
L 124.469527 -91.165291 
L 126.285463 -90.465725 
L 128.101399 -89.782499 
L 129.917334 -89.115065 
L 131.73327 -88.462896 
L 133.549206 -87.825488 
L 135.365142 -87.20236 
L 137.181078 -86.59305 
L 138.997013 -85.997117 
L 140.812949 -85.414137 
L 142.628885 -84.843703 
L 144.444821 -84.285426 
L 146.260757 -83.738933 
L 148.076693 -83.203864 
L 149.892628 -82.679875 
L 151.708564 -82.166634 
L 153.5245 -81.663824 
L 155.340436 -81.171138 
L 157.156372 -80.688283 
L 158.972307 -80.214974 
L 160.788243 -79.750939 
L 162.604179 -79.295916 
L 164.420115 -78.849652 
L 166.236051 -78.411904 
L 168.051986 -77.982437 
L 169.867922 -77.561023 
L 171.683858 -77.147446 
L 173.499794 -76.741495 
L 175.31573 -76.342965 
L 177.131665 -75.951662 
L 178.947601 -75.567396 
L 180.763537 -75.189983 
L 182.579473 -74.819247 
L 184.395409 -74.455017 
L 186.211344 -74.097128 
L 188.02728 -73.74542 
L 189.843216 -73.399739 
L 191.659152 -73.059935 
L 193.475088 -72.725864 
L 195.291024 -72.397386 
L 197.106959 -72.074364 
L 198.922895 -71.756669 
L 200.738831 -71.444172 
L 202.554767 -71.136751 
L 204.370703 -70.834286 
L 206.186638 -70.536661 
L 208.002574 -70.243764 
L 209.81851 -69.955487 
L 209.81851 -184.723198 
L 209.81851 -184.723198 
L 208.002574 -184.723198 
L 206.186638 -184.723198 
L 204.370703 -184.723198 
L 202.554767 -184.723198 
L 200.738831 -184.723198 
L 198.922895 -184.723198 
L 197.106959 -184.723198 
L 195.291024 -184.723198 
L 193.475088 -184.723198 
L 191.659152 -184.723198 
L 189.843216 -184.723198 
L 188.02728 -184.723198 
L 186.211344 -184.723198 
L 184.395409 -184.723198 
L 182.579473 -184.723198 
L 180.763537 -184.723198 
L 178.947601 -184.723198 
L 177.131665 -184.723198 
L 175.31573 -184.723198 
L 173.499794 -184.723198 
L 171.683858 -184.723198 
L 169.867922 -184.723198 
L 168.051986 -184.723198 
L 166.236051 -184.723198 
L 164.420115 -184.723198 
L 162.604179 -184.723198 
L 160.788243 -184.723198 
L 158.972307 -184.723198 
L 157.156372 -184.723198 
L 155.340436 -184.723198 
L 153.5245 -184.723198 
L 151.708564 -184.723198 
L 149.892628 -184.723198 
L 148.076693 -184.723198 
L 146.260757 -184.723198 
L 144.444821 -184.723198 
L 142.628885 -184.723198 
L 140.812949 -184.723198 
L 138.997013 -184.723198 
L 137.181078 -184.723198 
L 135.365142 -184.723198 
L 133.549206 -184.723198 
L 131.73327 -184.723198 
L 129.917334 -184.723198 
L 128.101399 -184.723198 
L 126.285463 -184.723198 
L 124.469527 -184.723198 
L 122.653591 -184.723198 
L 120.837655 -184.723198 
L 119.02172 -184.723198 
L 117.205784 -184.723198 
L 115.389848 -184.723198 
L 113.573912 -184.723198 
L 111.757976 -184.723198 
L 109.942041 -184.723198 
L 108.126105 -184.723198 
L 106.310169 -184.723198 
L 104.494233 -184.723198 
L 102.678297 -184.723198 
L 100.862362 -184.723198 
L 99.046426 -184.723198 
L 97.23049 -184.723198 
L 95.414554 -184.723198 
L 93.598618 -184.723198 
L 91.782682 -184.723198 
L 89.966747 -184.723198 
L 88.150811 -184.723198 
L 86.334875 -184.723198 
L 84.518939 -184.723198 
L 82.703003 -184.723198 
L 80.887068 -184.723198 
L 79.071132 -184.723198 
L 77.255196 -184.723198 
L 75.43926 -184.723198 
L 73.623324 -184.723198 
L 71.807389 -184.723198 
L 69.991453 -184.723198 
L 68.175517 -184.723198 
L 66.359581 -184.723198 
L 64.543645 -184.723198 
L 62.72771 -184.723198 
L 60.911774 -184.723198 
L 59.095838 -184.723198 
L 57.279902 -184.723198 
L 55.463966 -184.723198 
L 53.648031 -184.723198 
L 51.832095 -184.723198 
L 50.016159 -184.723198 
L 48.200223 -184.723198 
L 46.384287 -184.723198 
L 44.568351 -184.723198 
L 42.752416 -184.723198 
L 40.93648 -184.723198 
L 39.120544 -184.723198 
L 37.304608 -184.723198 
L 35.488672 -184.723198 
L 33.672737 -184.723198 
L 31.856801 -184.723198 
L 30.040865 -184.723198 
z
" style="stroke: #d3d3d3"/>
    </defs>
    <g clip-path="url(#p51d98fb0e7)">
     <use xlink:href="#m32ae24f32f" x="0" y="216" style="fill: #d3d3d3; stroke: #d3d3d3"/>
    </g>
   </g>
   <g id="PolyCollection_2">
    <defs>
     <path id="m975d210d9b" d="M 30.040865 -39.212245 
L 30.040865 -184.723198 
L 31.856801 -49.547587 
L 33.672737 -49.527561 
L 35.488672 -49.4989 
L 37.304608 -49.479294 
L 39.120544 -49.459885 
L 40.93648 -49.440671 
L 42.752416 -49.430434 
L 44.568351 -49.394035 
L 46.384287 -49.375394 
L 48.200223 -49.356934 
L 50.016159 -49.33865 
L 51.832095 -49.32054 
L 53.648031 -49.302601 
L 55.463966 -49.28483 
L 57.279902 -49.249845 
L 59.095838 -49.232423 
L 60.911774 -49.21516 
L 62.72771 -49.198053 
L 64.543645 -49.181099 
L 66.359581 -49.164296 
L 68.175517 -49.130398 
L 69.991453 -49.113909 
L 71.807389 -49.097563 
L 73.623324 -49.081357 
L 75.43926 -49.065289 
L 77.255196 -49.032221 
L 79.071132 -49.016441 
L 80.887068 -49.000792 
L 82.703003 -48.985272 
L 84.518939 -48.969877 
L 86.334875 -48.937572 
L 88.150811 -48.922443 
L 89.966747 -48.907433 
L 91.782682 -48.89254 
L 93.598618 -177.913584 
L 95.414554 -177.754901 
L 97.23049 -177.597704 
L 99.046426 -177.441969 
L 100.862362 -177.304549 
L 102.678297 -177.15164 
L 104.494233 -177.000117 
L 106.310169 -176.849955 
L 108.126105 -176.70113 
L 109.942041 -176.570411 
L 111.757976 -176.424175 
L 113.573912 -176.279208 
L 115.389848 -176.152229 
L 117.205784 -176.009718 
L 119.02172 -175.868412 
L 120.837655 -175.72829 
L 122.653591 -175.606004 
L 124.469527 -175.468173 
L 126.285463 -175.331466 
L 128.101399 -175.195865 
L 129.917334 -175.061349 
L 131.73327 -174.927901 
L 133.549206 -174.795502 
L 135.365142 -174.664135 
L 137.181078 -174.533781 
L 138.997013 -174.404425 
L 140.812949 -174.276048 
L 142.628885 -174.148635 
L 144.444821 -174.022169 
L 146.260757 -173.896633 
L 148.076693 -173.772013 
L 149.892628 -173.648293 
L 151.708564 -173.525458 
L 153.5245 -173.403492 
L 155.340436 -173.282381 
L 157.156372 -173.162111 
L 158.972307 -173.042668 
L 160.788243 -172.924038 
L 162.604179 -172.806207 
L 164.420115 -172.689162 
L 166.236051 -172.572889 
L 168.051986 -172.457376 
L 169.867922 -172.34261 
L 171.683858 -172.228579 
L 173.499794 -172.115269 
L 175.31573 -172.00267 
L 177.131665 -171.89077 
L 178.947601 -171.779556 
L 180.763537 -171.669017 
L 182.579473 -171.559142 
L 184.395409 -171.44992 
L 186.211344 -171.34134 
L 188.02728 -171.233391 
L 189.843216 -171.126062 
L 191.659152 -171.019344 
L 193.475088 -170.913226 
L 195.291024 -170.807698 
L 197.106959 -170.702751 
L 198.922895 -170.598373 
L 200.738831 -170.494557 
L 202.554767 -170.391292 
L 204.370703 -170.28857 
L 206.186638 -170.18638 
L 208.002574 -170.084715 
L 209.81851 -169.983565 
L 209.81851 -38.852564 
L 209.81851 -38.852564 
L 208.002574 -38.85587 
L 206.186638 -38.859182 
L 204.370703 -38.8625 
L 202.554767 -38.865824 
L 200.738831 -38.869155 
L 198.922895 -38.872491 
L 197.106959 -38.875834 
L 195.291024 -38.879182 
L 193.475088 -38.882537 
L 191.659152 -38.885899 
L 189.843216 -38.889266 
L 188.02728 -38.89264 
L 186.211344 -38.89602 
L 184.395409 -38.899406 
L 182.579473 -38.902799 
L 180.763537 -38.906198 
L 178.947601 -38.909603 
L 177.131665 -38.913015 
L 175.31573 -38.916433 
L 173.499794 -38.919857 
L 171.683858 -38.923288 
L 169.867922 -38.926725 
L 168.051986 -38.930169 
L 166.236051 -38.933619 
L 164.420115 -38.937076 
L 162.604179 -38.940539 
L 160.788243 -38.944008 
L 158.972307 -38.947485 
L 157.156372 -38.950967 
L 155.340436 -38.954457 
L 153.5245 -38.957953 
L 151.708564 -38.961455 
L 149.892628 -38.964964 
L 148.076693 -38.96848 
L 146.260757 -38.972003 
L 144.444821 -38.975532 
L 142.628885 -38.979068 
L 140.812949 -38.98261 
L 138.997013 -38.98616 
L 137.181078 -38.989716 
L 135.365142 -38.993279 
L 133.549206 -38.996849 
L 131.73327 -39.000425 
L 129.917334 -39.004009 
L 128.101399 -39.007599 
L 126.285463 -39.011196 
L 124.469527 -39.0148 
L 122.653591 -39.018411 
L 120.837655 -39.022029 
L 119.02172 -39.025654 
L 117.205784 -39.029286 
L 115.389848 -39.032925 
L 113.573912 -39.036571 
L 111.757976 -39.040224 
L 109.942041 -39.043884 
L 108.126105 -39.047551 
L 106.310169 -39.051225 
L 104.494233 -39.054906 
L 102.678297 -39.058595 
L 100.862362 -39.062291 
L 99.046426 -39.065993 
L 97.23049 -39.069704 
L 95.414554 -39.073421 
L 93.598618 -39.077145 
L 91.782682 -39.080877 
L 89.966747 -39.084616 
L 88.150811 -39.088363 
L 86.334875 -39.092117 
L 84.518939 -39.095878 
L 82.703003 -39.099646 
L 80.887068 -39.103422 
L 79.071132 -39.107206 
L 77.255196 -39.110996 
L 75.43926 -39.114795 
L 73.623324 -39.1186 
L 71.807389 -39.122414 
L 69.991453 -39.126234 
L 68.175517 -39.130063 
L 66.359581 -39.133899 
L 64.543645 -39.137742 
L 62.72771 -39.141593 
L 60.911774 -39.145452 
L 59.095838 -39.149319 
L 57.279902 -39.153193 
L 55.463966 -39.157075 
L 53.648031 -39.160965 
L 51.832095 -39.164862 
L 50.016159 -39.168767 
L 48.200223 -39.17268 
L 46.384287 -39.176601 
L 44.568351 -39.18053 
L 42.752416 -39.184466 
L 40.93648 -39.188411 
L 39.120544 -39.192363 
L 37.304608 -39.196324 
L 35.488672 -39.200292 
L 33.672737 -39.204268 
L 31.856801 -39.208253 
L 30.040865 -39.212245 
z
" style="stroke: #a9a9a9"/>
    </defs>
    <g clip-path="url(#p51d98fb0e7)">
     <use xlink:href="#m975d210d9b" x="0" y="216" style="fill: #a9a9a9; stroke: #a9a9a9"/>
    </g>
   </g>
   <g id="matplotlib.axis_1">
    <g id="xtick_1">
     <g id="line2d_1">
      <defs>
       <path id="m6a7b12549c" d="M 0 0 
L 0 -3.5 
" style="stroke: #000000; stroke-width: 0.8"/>
      </defs>
      <g>
       <use xlink:href="#m6a7b12549c" x="30.040865" y="31.276802" style="stroke: #000000; stroke-width: 0.8"/>
      </g>
     </g>
     <g id="text_1">
      <!-- 0 -->
      <g transform="translate(26.859615 22.197115) scale(0.1 -0.1)">
       <defs>
        <path id="DejaVuSans-30" d="M 2034 4250 
Q 1547 4250 1301 3770 
Q 1056 3291 1056 2328 
Q 1056 1369 1301 889 
Q 1547 409 2034 409 
Q 2525 409 2770 889 
Q 3016 1369 3016 2328 
Q 3016 3291 2770 3770 
Q 2525 4250 2034 4250 
z
M 2034 4750 
Q 2819 4750 3233 4129 
Q 3647 3509 3647 2328 
Q 3647 1150 3233 529 
Q 2819 -91 2034 -91 
Q 1250 -91 836 529 
Q 422 1150 422 2328 
Q 422 3509 836 4129 
Q 1250 4750 2034 4750 
z
" transform="scale(0.015625)"/>
       </defs>
       <use xlink:href="#DejaVuSans-30"/>
      </g>
     </g>
    </g>
    <g id="xtick_2">
     <g id="line2d_2">
      <g>
       <use xlink:href="#m6a7b12549c" x="209.81851" y="31.276802" style="stroke: #000000; stroke-width: 0.8"/>
      </g>
     </g>
     <g id="text_2">
      <!-- 1 -->
      <g transform="translate(206.63726 22.197115) scale(0.1 -0.1)">
       <defs>
        <path id="DejaVuSans-31" d="M 794 531 
L 1825 531 
L 1825 4091 
L 703 3866 
L 703 4441 
L 1819 4666 
L 2450 4666 
L 2450 531 
L 3481 531 
L 3481 0 
L 794 0 
L 794 531 
z
" transform="scale(0.015625)"/>
       </defs>
       <use xlink:href="#DejaVuSans-31"/>
      </g>
     </g>
    </g>
    <g id="text_3">
     <!-- private nutrients -->
     <g transform="translate(78.109375 10.598677) scale(0.1 -0.1)">
      <defs>
       <path id="DejaVuSans-70" d="M 1159 525 
L 1159 -1331 
L 581 -1331 
L 581 3500 
L 1159 3500 
L 1159 2969 
Q 1341 3281 1617 3432 
Q 1894 3584 2278 3584 
Q 2916 3584 3314 3078 
Q 3713 2572 3713 1747 
Q 3713 922 3314 415 
Q 2916 -91 2278 -91 
Q 1894 -91 1617 61 
Q 1341 213 1159 525 
z
M 3116 1747 
Q 3116 2381 2855 2742 
Q 2594 3103 2138 3103 
Q 1681 3103 1420 2742 
Q 1159 2381 1159 1747 
Q 1159 1113 1420 752 
Q 1681 391 2138 391 
Q 2594 391 2855 752 
Q 3116 1113 3116 1747 
z
" transform="scale(0.015625)"/>
       <path id="DejaVuSans-72" d="M 2631 2963 
Q 2534 3019 2420 3045 
Q 2306 3072 2169 3072 
Q 1681 3072 1420 2755 
Q 1159 2438 1159 1844 
L 1159 0 
L 581 0 
L 581 3500 
L 1159 3500 
L 1159 2956 
Q 1341 3275 1631 3429 
Q 1922 3584 2338 3584 
Q 2397 3584 2469 3576 
Q 2541 3569 2628 3553 
L 2631 2963 
z
" transform="scale(0.015625)"/>
       <path id="DejaVuSans-69" d="M 603 3500 
L 1178 3500 
L 1178 0 
L 603 0 
L 603 3500 
z
M 603 4863 
L 1178 4863 
L 1178 4134 
L 603 4134 
L 603 4863 
z
" transform="scale(0.015625)"/>
       <path id="DejaVuSans-76" d="M 191 3500 
L 800 3500 
L 1894 563 
L 2988 3500 
L 3597 3500 
L 2284 0 
L 1503 0 
L 191 3500 
z
" transform="scale(0.015625)"/>
       <path id="DejaVuSans-61" d="M 2194 1759 
Q 1497 1759 1228 1600 
Q 959 1441 959 1056 
Q 959 750 1161 570 
Q 1363 391 1709 391 
Q 2188 391 2477 730 
Q 2766 1069 2766 1631 
L 2766 1759 
L 2194 1759 
z
M 3341 1997 
L 3341 0 
L 2766 0 
L 2766 531 
Q 2569 213 2275 61 
Q 1981 -91 1556 -91 
Q 1019 -91 701 211 
Q 384 513 384 1019 
Q 384 1609 779 1909 
Q 1175 2209 1959 2209 
L 2766 2209 
L 2766 2266 
Q 2766 2663 2505 2880 
Q 2244 3097 1772 3097 
Q 1472 3097 1187 3025 
Q 903 2953 641 2809 
L 641 3341 
Q 956 3463 1253 3523 
Q 1550 3584 1831 3584 
Q 2591 3584 2966 3190 
Q 3341 2797 3341 1997 
z
" transform="scale(0.015625)"/>
       <path id="DejaVuSans-74" d="M 1172 4494 
L 1172 3500 
L 2356 3500 
L 2356 3053 
L 1172 3053 
L 1172 1153 
Q 1172 725 1289 603 
Q 1406 481 1766 481 
L 2356 481 
L 2356 0 
L 1766 0 
Q 1100 0 847 248 
Q 594 497 594 1153 
L 594 3053 
L 172 3053 
L 172 3500 
L 594 3500 
L 594 4494 
L 1172 4494 
z
" transform="scale(0.015625)"/>
       <path id="DejaVuSans-65" d="M 3597 1894 
L 3597 1613 
L 953 1613 
Q 991 1019 1311 708 
Q 1631 397 2203 397 
Q 2534 397 2845 478 
Q 3156 559 3463 722 
L 3463 178 
Q 3153 47 2828 -22 
Q 2503 -91 2169 -91 
Q 1331 -91 842 396 
Q 353 884 353 1716 
Q 353 2575 817 3079 
Q 1281 3584 2069 3584 
Q 2775 3584 3186 3129 
Q 3597 2675 3597 1894 
z
M 3022 2063 
Q 3016 2534 2758 2815 
Q 2500 3097 2075 3097 
Q 1594 3097 1305 2825 
Q 1016 2553 972 2059 
L 3022 2063 
z
" transform="scale(0.015625)"/>
       <path id="DejaVuSans-20" transform="scale(0.015625)"/>
       <path id="DejaVuSans-6e" d="M 3513 2113 
L 3513 0 
L 2938 0 
L 2938 2094 
Q 2938 2591 2744 2837 
Q 2550 3084 2163 3084 
Q 1697 3084 1428 2787 
Q 1159 2491 1159 1978 
L 1159 0 
L 581 0 
L 581 3500 
L 1159 3500 
L 1159 2956 
Q 1366 3272 1645 3428 
Q 1925 3584 2291 3584 
Q 2894 3584 3203 3211 
Q 3513 2838 3513 2113 
z
" transform="scale(0.015625)"/>
       <path id="DejaVuSans-75" d="M 544 1381 
L 544 3500 
L 1119 3500 
L 1119 1403 
Q 1119 906 1312 657 
Q 1506 409 1894 409 
Q 2359 409 2629 706 
Q 2900 1003 2900 1516 
L 2900 3500 
L 3475 3500 
L 3475 0 
L 2900 0 
L 2900 538 
Q 2691 219 2414 64 
Q 2138 -91 1772 -91 
Q 1169 -91 856 284 
Q 544 659 544 1381 
z
M 1991 3584 
L 1991 3584 
z
" transform="scale(0.015625)"/>
       <path id="DejaVuSans-73" d="M 2834 3397 
L 2834 2853 
Q 2591 2978 2328 3040 
Q 2066 3103 1784 3103 
Q 1356 3103 1142 2972 
Q 928 2841 928 2578 
Q 928 2378 1081 2264 
Q 1234 2150 1697 2047 
L 1894 2003 
Q 2506 1872 2764 1633 
Q 3022 1394 3022 966 
Q 3022 478 2636 193 
Q 2250 -91 1575 -91 
Q 1294 -91 989 -36 
Q 684 19 347 128 
L 347 722 
Q 666 556 975 473 
Q 1284 391 1588 391 
Q 1994 391 2212 530 
Q 2431 669 2431 922 
Q 2431 1156 2273 1281 
Q 2116 1406 1581 1522 
L 1381 1569 
Q 847 1681 609 1914 
Q 372 2147 372 2553 
Q 372 3047 722 3315 
Q 1072 3584 1716 3584 
Q 2034 3584 2315 3537 
Q 2597 3491 2834 3397 
z
" transform="scale(0.015625)"/>
      </defs>
      <use xlink:href="#DejaVuSans-70"/>
      <use xlink:href="#DejaVuSans-72" x="63.476562"/>
      <use xlink:href="#DejaVuSans-69" x="104.589844"/>
      <use xlink:href="#DejaVuSans-76" x="132.373047"/>
      <use xlink:href="#DejaVuSans-61" x="191.552734"/>
      <use xlink:href="#DejaVuSans-74" x="252.832031"/>
      <use xlink:href="#DejaVuSans-65" x="292.041016"/>
      <use xlink:href="#DejaVuSans-20" x="353.564453"/>
      <use xlink:href="#DejaVuSans-6e" x="385.351562"/>
      <use xlink:href="#DejaVuSans-75" x="448.730469"/>
      <use xlink:href="#DejaVuSans-74" x="512.109375"/>
      <use xlink:href="#DejaVuSans-72" x="551.318359"/>
      <use xlink:href="#DejaVuSans-69" x="592.431641"/>
      <use xlink:href="#DejaVuSans-65" x="620.214844"/>
      <use xlink:href="#DejaVuSans-6e" x="681.738281"/>
      <use xlink:href="#DejaVuSans-74" x="745.117188"/>
      <use xlink:href="#DejaVuSans-73" x="784.326172"/>
     </g>
    </g>
   </g>
   <g id="matplotlib.axis_2">
    <g id="ytick_1">
     <g id="line2d_3">
      <defs>
       <path id="m32a4989cf3" d="M 0 0 
L -3.5 0 
" style="stroke: #000000; stroke-width: 0.8"/>
      </defs>
      <g>
       <use xlink:href="#m32a4989cf3" x="30.040865" y="31.276802" style="stroke: #000000; stroke-width: 0.8"/>
      </g>
     </g>
     <g id="text_4">
      <!-- 0 -->
      <g transform="translate(16.678365 35.076021) scale(0.1 -0.1)">
       <use xlink:href="#DejaVuSans-30"/>
      </g>
     </g>
    </g>
    <g id="ytick_2">
     <g id="line2d_4">
      <g>
       <use xlink:href="#m32a4989cf3" x="30.040865" y="207.120854" style="stroke: #000000; stroke-width: 0.8"/>
      </g>
     </g>
     <g id="text_5">
      <!-- 1 -->
      <g transform="translate(16.678365 210.920073) scale(0.1 -0.1)">
       <use xlink:href="#DejaVuSans-31"/>
      </g>
     </g>
    </g>
    <g id="text_6">
     <!-- toxin investment -->
     <g transform="translate(10.598677 161.402734) rotate(-90) scale(0.1 -0.1)">
      <defs>
       <path id="DejaVuSans-6f" d="M 1959 3097 
Q 1497 3097 1228 2736 
Q 959 2375 959 1747 
Q 959 1119 1226 758 
Q 1494 397 1959 397 
Q 2419 397 2687 759 
Q 2956 1122 2956 1747 
Q 2956 2369 2687 2733 
Q 2419 3097 1959 3097 
z
M 1959 3584 
Q 2709 3584 3137 3096 
Q 3566 2609 3566 1747 
Q 3566 888 3137 398 
Q 2709 -91 1959 -91 
Q 1206 -91 779 398 
Q 353 888 353 1747 
Q 353 2609 779 3096 
Q 1206 3584 1959 3584 
z
" transform="scale(0.015625)"/>
       <path id="DejaVuSans-78" d="M 3513 3500 
L 2247 1797 
L 3578 0 
L 2900 0 
L 1881 1375 
L 863 0 
L 184 0 
L 1544 1831 
L 300 3500 
L 978 3500 
L 1906 2253 
L 2834 3500 
L 3513 3500 
z
" transform="scale(0.015625)"/>
       <path id="DejaVuSans-6d" d="M 3328 2828 
Q 3544 3216 3844 3400 
Q 4144 3584 4550 3584 
Q 5097 3584 5394 3201 
Q 5691 2819 5691 2113 
L 5691 0 
L 5113 0 
L 5113 2094 
Q 5113 2597 4934 2840 
Q 4756 3084 4391 3084 
Q 3944 3084 3684 2787 
Q 3425 2491 3425 1978 
L 3425 0 
L 2847 0 
L 2847 2094 
Q 2847 2600 2669 2842 
Q 2491 3084 2119 3084 
Q 1678 3084 1418 2786 
Q 1159 2488 1159 1978 
L 1159 0 
L 581 0 
L 581 3500 
L 1159 3500 
L 1159 2956 
Q 1356 3278 1631 3431 
Q 1906 3584 2284 3584 
Q 2666 3584 2933 3390 
Q 3200 3197 3328 2828 
z
" transform="scale(0.015625)"/>
      </defs>
      <use xlink:href="#DejaVuSans-74"/>
      <use xlink:href="#DejaVuSans-6f" x="39.208984"/>
      <use xlink:href="#DejaVuSans-78" x="97.265625"/>
      <use xlink:href="#DejaVuSans-69" x="156.445312"/>
      <use xlink:href="#DejaVuSans-6e" x="184.228516"/>
      <use xlink:href="#DejaVuSans-20" x="247.607422"/>
      <use xlink:href="#DejaVuSans-69" x="279.394531"/>
      <use xlink:href="#DejaVuSans-6e" x="307.177734"/>
      <use xlink:href="#DejaVuSans-76" x="370.556641"/>
      <use xlink:href="#DejaVuSans-65" x="429.736328"/>
      <use xlink:href="#DejaVuSans-73" x="491.259766"/>
      <use xlink:href="#DejaVuSans-74" x="543.359375"/>
      <use xlink:href="#DejaVuSans-6d" x="582.568359"/>
      <use xlink:href="#DejaVuSans-65" x="679.980469"/>
      <use xlink:href="#DejaVuSans-6e" x="741.503906"/>
      <use xlink:href="#DejaVuSans-74" x="804.882812"/>
     </g>
    </g>
   </g>
   <g id="line2d_5">
    <path d="M 30.040865 31.276802 
L 31.856801 31.509026 
L 33.672737 31.73842 
L 35.488672 31.965035 
L 37.304608 32.188925 
L 39.120544 32.410141 
L 40.93648 32.628734 
L 42.752416 32.844751 
L 44.568351 33.058241 
L 46.384287 33.269252 
L 48.200223 33.477829 
L 50.016159 33.684017 
L 51.832095 33.887861 
L 53.648031 34.089404 
L 55.463966 34.288688 
L 57.279902 34.485756 
L 59.095838 34.680647 
L 60.911774 34.873401 
L 62.72771 35.064058 
L 64.543645 35.252656 
L 66.359581 35.439232 
L 68.175517 35.623823 
L 69.991453 35.806466 
L 71.807389 35.987195 
L 73.623324 36.166044 
L 75.43926 36.343049 
L 77.255196 36.518241 
L 79.071132 36.691654 
L 80.887068 36.863319 
L 82.703003 37.033268 
L 84.518939 37.201531 
L 86.334875 37.368139 
L 88.150811 37.53312 
L 89.966747 37.696504 
L 91.782682 37.858318 
L 93.598618 38.018591 
L 95.414554 38.17735 
L 97.23049 38.334622 
L 99.046426 38.490432 
L 100.862362 38.644806 
L 102.678297 38.79777 
L 104.494233 38.949348 
L 106.310169 39.099564 
L 108.126105 39.248441 
L 109.942041 39.396005 
L 111.757976 39.542276 
L 113.573912 39.687277 
L 115.389848 39.831031 
L 117.205784 39.973559 
L 119.02172 40.114882 
L 120.837655 40.255021 
L 122.653591 40.393996 
L 124.469527 40.531827 
L 126.285463 40.668534 
L 128.101399 40.804135 
L 129.917334 40.938651 
L 131.73327 41.072099 
L 133.549206 41.204498 
L 135.365142 41.335865 
L 137.181078 41.466219 
L 138.997013 41.595575 
L 140.812949 41.723952 
L 142.628885 41.851365 
L 144.444821 41.977831 
L 146.260757 42.103367 
L 148.076693 42.227987 
L 149.892628 42.351707 
L 151.708564 42.474542 
L 153.5245 42.596508 
L 155.340436 42.717619 
L 157.156372 42.837889 
L 158.972307 42.957332 
L 160.788243 43.075962 
L 162.604179 43.193793 
L 164.420115 43.310838 
L 166.236051 43.427111 
L 168.051986 43.542624 
L 169.867922 43.65739 
L 171.683858 43.771421 
L 173.499794 43.884731 
L 175.31573 43.99733 
L 177.131665 44.10923 
L 178.947601 44.220444 
L 180.763537 44.330983 
L 182.579473 44.440858 
L 184.395409 44.55008 
L 186.211344 44.65866 
L 188.02728 44.766609 
L 189.843216 44.873938 
L 191.659152 44.980656 
L 193.475088 45.086774 
L 195.291024 45.192302 
L 197.106959 45.297249 
L 198.922895 45.401627 
L 200.738831 45.505443 
L 202.554767 45.608708 
L 204.370703 45.71143 
L 206.186638 45.81362 
L 208.002574 45.915285 
L 209.81851 46.016435 
" clip-path="url(#p51d98fb0e7)" style="fill: none; stroke-dasharray: 1.5,2.475; stroke-dashoffset: 0; stroke: #000000; stroke-width: 1.5"/>
   </g>
   <g id="line2d_6">
    <path d="M 30.040865 166.438335 
L 31.856801 166.459767 
L 33.672737 166.481113 
L 35.488672 166.502373 
L 37.304608 166.523547 
L 39.120544 166.544636 
L 40.93648 166.565639 
L 42.752416 166.586557 
L 44.568351 166.607391 
L 46.384287 166.62814 
L 48.200223 166.648805 
L 50.016159 166.669386 
L 51.832095 166.689884 
L 53.648031 166.710298 
L 55.463966 166.73063 
L 57.279902 166.750879 
L 59.095838 166.771046 
L 60.911774 166.791131 
L 62.72771 166.811134 
L 64.543645 166.831055 
L 66.359581 166.850896 
L 68.175517 166.870656 
L 69.991453 166.890335 
L 71.807389 166.909934 
L 73.623324 166.929453 
L 75.43926 166.948892 
L 77.255196 166.968251 
L 79.071132 166.987532 
L 80.887068 167.006733 
L 82.703003 167.025856 
L 84.518939 167.044901 
L 86.334875 167.063867 
L 88.150811 167.082756 
L 89.966747 167.101567 
L 91.782682 167.120301 
L 93.598618 167.138958 
L 95.414554 167.157538 
L 97.23049 167.176042 
L 99.046426 167.194469 
L 100.862362 167.21282 
L 102.678297 167.231096 
L 104.494233 167.249296 
L 106.310169 167.267421 
L 108.126105 167.285471 
L 109.942041 167.303446 
L 111.757976 167.321347 
L 113.573912 167.339173 
L 115.389848 167.356926 
L 117.205784 167.374605 
L 119.02172 167.39221 
L 120.837655 167.409742 
L 122.653591 167.427201 
L 124.469527 167.444587 
L 126.285463 167.461901 
L 128.101399 167.479142 
L 129.917334 167.496311 
L 131.73327 167.513409 
L 133.549206 167.530434 
L 135.365142 167.547389 
L 137.181078 167.564272 
L 138.997013 167.581084 
L 140.812949 167.597826 
L 142.628885 167.614497 
L 144.444821 167.631098 
L 146.260757 167.647629 
L 148.076693 167.664089 
L 149.892628 167.680481 
L 151.708564 167.696803 
L 153.5245 167.713055 
L 155.340436 167.729239 
L 157.156372 167.745354 
L 158.972307 167.7614 
L 160.788243 167.777378 
L 162.604179 167.793288 
L 164.420115 167.80913 
L 166.236051 167.824904 
L 168.051986 167.840611 
L 169.867922 167.856251 
L 171.683858 167.871823 
L 173.499794 167.887328 
L 175.31573 167.902767 
L 177.131665 167.918139 
L 178.947601 167.933444 
L 180.763537 167.948684 
L 182.579473 167.963857 
L 184.395409 167.978965 
L 186.211344 167.994007 
L 188.02728 168.008984 
L 189.843216 168.023896 
L 191.659152 168.038742 
L 193.475088 168.053524 
L 195.291024 168.068241 
L 197.106959 168.082893 
L 198.922895 168.097482 
L 200.738831 168.112006 
L 202.554767 168.126466 
L 204.370703 168.140862 
L 206.186638 168.155195 
L 208.002574 168.169464 
L 209.81851 168.18367 
" clip-path="url(#p51d98fb0e7)" style="fill: none; stroke-dasharray: 1.5,2.475; stroke-dashoffset: 0; stroke: #000000; stroke-width: 1.5"/>
   </g>
   <g id="line2d_7">
    <path d="M 30.040865 31.276802 
L 31.856801 166.452413 
L 33.672737 166.472439 
L 35.488672 166.5011 
L 37.304608 166.520706 
L 39.120544 166.540115 
L 40.93648 166.559329 
L 42.752416 166.569566 
L 44.568351 166.605965 
L 46.384287 166.624606 
L 48.200223 166.643066 
L 50.016159 166.66135 
L 51.832095 166.67946 
L 53.648031 166.697399 
L 55.463966 166.71517 
L 57.279902 166.750155 
L 59.095838 166.767577 
L 60.911774 166.78484 
L 62.72771 166.801947 
L 64.543645 166.818901 
L 66.359581 166.835704 
L 68.175517 166.869602 
L 69.991453 166.886091 
L 71.807389 166.902437 
L 73.623324 166.918643 
L 75.43926 166.934711 
L 77.255196 166.967779 
L 79.071132 166.983559 
L 80.887068 166.999208 
L 82.703003 167.014728 
L 84.518939 167.030123 
L 86.334875 167.062428 
L 88.150811 167.077557 
L 89.966747 167.092567 
L 91.782682 167.10746 
L 93.598618 38.086416 
L 95.414554 38.245099 
L 97.23049 38.402296 
L 99.046426 38.558031 
L 100.862362 38.695451 
L 102.678297 38.84836 
L 104.494233 38.999883 
L 106.310169 39.150045 
L 108.126105 39.29887 
L 109.942041 39.429589 
L 111.757976 39.575825 
L 113.573912 39.720792 
L 115.389848 39.847771 
L 117.205784 39.990282 
L 119.02172 40.131588 
L 120.837655 40.27171 
L 122.653591 40.393996 
L 124.469527 40.531827 
L 126.285463 40.668534 
L 128.101399 40.804135 
L 129.917334 40.938651 
L 131.73327 41.072099 
L 133.549206 41.204498 
L 135.365142 41.335865 
L 137.181078 41.466219 
L 138.997013 41.595575 
L 140.812949 41.723952 
L 142.628885 41.851365 
L 144.444821 41.977831 
L 146.260757 42.103367 
L 148.076693 42.227987 
L 149.892628 42.351707 
L 151.708564 42.474542 
L 153.5245 42.596508 
L 155.340436 42.717619 
L 157.156372 42.837889 
L 158.972307 42.957332 
L 160.788243 43.075962 
L 162.604179 43.193793 
L 164.420115 43.310838 
L 166.236051 43.427111 
L 168.051986 43.542624 
L 169.867922 43.65739 
L 171.683858 43.771421 
L 173.499794 43.884731 
L 175.31573 43.99733 
L 177.131665 44.10923 
L 178.947601 44.220444 
L 180.763537 44.330983 
L 182.579473 44.440858 
L 184.395409 44.55008 
L 186.211344 44.65866 
L 188.02728 44.766609 
L 189.843216 44.873938 
L 191.659152 44.980656 
L 193.475088 45.086774 
L 195.291024 45.192302 
L 197.106959 45.297249 
L 198.922895 45.401627 
L 200.738831 45.505443 
L 202.554767 45.608708 
L 204.370703 45.71143 
L 206.186638 45.81362 
L 208.002574 45.915285 
L 209.81851 46.016435 
" clip-path="url(#p51d98fb0e7)" style="fill: none; stroke: #000000; stroke-width: 1.5; stroke-linecap: square"/>
   </g>
   <g id="line2d_8">
    <path d="M 30.040865 176.787755 
L 31.856801 176.791747 
L 33.672737 176.795732 
L 35.488672 176.799708 
L 37.304608 176.803676 
L 39.120544 176.807637 
L 40.93648 176.811589 
L 42.752416 176.815534 
L 44.568351 176.81947 
L 46.384287 176.823399 
L 48.200223 176.82732 
L 50.016159 176.831233 
L 51.832095 176.835138 
L 53.648031 176.839035 
L 55.463966 176.842925 
L 57.279902 176.846807 
L 59.095838 176.850681 
L 60.911774 176.854548 
L 62.72771 176.858407 
L 64.543645 176.862258 
L 66.359581 176.866101 
L 68.175517 176.869937 
L 69.991453 176.873766 
L 71.807389 176.877586 
L 73.623324 176.8814 
L 75.43926 176.885205 
L 77.255196 176.889004 
L 79.071132 176.892794 
L 80.887068 176.896578 
L 82.703003 176.900354 
L 84.518939 176.904122 
L 86.334875 176.907883 
L 88.150811 176.911637 
L 89.966747 176.915384 
L 91.782682 176.919123 
L 93.598618 176.922855 
L 95.414554 176.926579 
L 97.23049 176.930296 
L 99.046426 176.934007 
L 100.862362 176.937709 
L 102.678297 176.941405 
L 104.494233 176.945094 
L 106.310169 176.948775 
L 108.126105 176.952449 
L 109.942041 176.956116 
L 111.757976 176.959776 
L 113.573912 176.963429 
L 115.389848 176.967075 
L 117.205784 176.970714 
L 119.02172 176.974346 
L 120.837655 176.977971 
L 122.653591 176.981589 
L 124.469527 176.9852 
L 126.285463 176.988804 
L 128.101399 176.992401 
L 129.917334 176.995991 
L 131.73327 176.999575 
L 133.549206 177.003151 
L 135.365142 177.006721 
L 137.181078 177.010284 
L 138.997013 177.01384 
L 140.812949 177.01739 
L 142.628885 177.020932 
L 144.444821 177.024468 
L 146.260757 177.027997 
L 148.076693 177.03152 
L 149.892628 177.035036 
L 151.708564 177.038545 
L 153.5245 177.042047 
L 155.340436 177.045543 
L 157.156372 177.049033 
L 158.972307 177.052515 
L 160.788243 177.055992 
L 162.604179 177.059461 
L 164.420115 177.062924 
L 166.236051 177.066381 
L 168.051986 177.069831 
L 169.867922 177.073275 
L 171.683858 177.076712 
L 173.499794 177.080143 
L 175.31573 177.083567 
L 177.131665 177.086985 
L 178.947601 177.090397 
L 180.763537 177.093802 
L 182.579473 177.097201 
L 184.395409 177.100594 
L 186.211344 177.10398 
L 188.02728 177.10736 
L 189.843216 177.110734 
L 191.659152 177.114101 
L 193.475088 177.117463 
L 195.291024 177.120818 
L 197.106959 177.124166 
L 198.922895 177.127509 
L 200.738831 177.130845 
L 202.554767 177.134176 
L 204.370703 177.1375 
L 206.186638 177.140818 
L 208.002574 177.14413 
L 209.81851 177.147436 
" clip-path="url(#p51d98fb0e7)" style="fill: none; stroke: #000000; stroke-width: 1.5; stroke-linecap: square"/>
   </g>
   <g id="PolyCollection_3">
    <defs>
     <path id="m7ede119598" d="M 30.040865 -8.879146 
L 30.040865 -184.723198 
L 31.856801 -180.361992 
L 33.672737 -176.233996 
L 35.488672 -172.32126 
L 37.304608 -168.607627 
L 39.120544 -165.07851 
L 40.93648 -161.720709 
L 42.752416 -158.522248 
L 44.568351 -155.472238 
L 46.384287 -152.560755 
L 48.200223 -149.778739 
L 50.016159 -147.117896 
L 51.832095 -144.570625 
L 53.648031 -142.129943 
L 55.463966 -139.789426 
L 57.279902 -137.543152 
L 59.095838 -135.385656 
L 60.911774 -133.311882 
L 62.72771 -131.317151 
L 64.543645 -129.397124 
L 66.359581 -127.54777 
L 68.175517 -125.765342 
L 69.991453 -124.046353 
L 71.807389 -122.387549 
L 73.623324 -120.785895 
L 75.43926 -119.238556 
L 77.255196 -117.742878 
L 79.071132 -116.296378 
L 80.887068 -114.896725 
L 82.703003 -113.541736 
L 84.518939 -112.229356 
L 86.334875 -110.957656 
L 88.150811 -109.724821 
L 89.966747 -108.529138 
L 91.782682 -107.368996 
L 93.598618 -106.242873 
L 95.414554 -105.149332 
L 97.23049 -104.087015 
L 99.046426 -103.054637 
L 100.862362 -102.050985 
L 102.678297 -101.074905 
L 104.494233 -100.125307 
L 106.310169 -99.201156 
L 108.126105 -98.301469 
L 109.942041 -97.425313 
L 111.757976 -96.571802 
L 113.573912 -95.740092 
L 115.389848 -94.929381 
L 117.205784 -94.138905 
L 119.02172 -93.367936 
L 120.837655 -92.61578 
L 122.653591 -91.881776 
L 124.469527 -91.165291 
L 126.285463 -90.465725 
L 128.101399 -89.782499 
L 129.917334 -89.115065 
L 131.73327 -88.462896 
L 133.549206 -87.825488 
L 135.365142 -87.20236 
L 137.181078 -86.59305 
L 138.997013 -85.997117 
L 140.812949 -85.414137 
L 142.628885 -84.843703 
L 144.444821 -84.285426 
L 146.260757 -83.738933 
L 148.076693 -83.203864 
L 149.892628 -82.679875 
L 151.708564 -82.166634 
L 153.5245 -81.663824 
L 155.340436 -81.171138 
L 157.156372 -80.688283 
L 158.972307 -80.214974 
L 160.788243 -79.750939 
L 162.604179 -79.295916 
L 164.420115 -78.849652 
L 166.236051 -78.411904 
L 168.051986 -77.982437 
L 169.867922 -77.561023 
L 171.683858 -77.147446 
L 173.499794 -76.741495 
L 175.31573 -76.342965 
L 177.131665 -75.951662 
L 178.947601 -75.567396 
L 180.763537 -75.189983 
L 182.579473 -74.819247 
L 184.395409 -74.455017 
L 186.211344 -74.097128 
L 188.02728 -73.74542 
L 189.843216 -73.399739 
L 191.659152 -73.059935 
L 193.475088 -72.725864 
L 195.291024 -72.397386 
L 197.106959 -72.074364 
L 198.922895 -71.756669 
L 200.738831 -71.444172 
L 202.554767 -71.136751 
L 204.370703 -70.834286 
L 206.186638 -70.536661 
L 208.002574 -70.243764 
L 209.81851 -69.955487 
L 209.81851 -8.879146 
L 209.81851 -8.879146 
L 208.002574 -8.879146 
L 206.186638 -8.879146 
L 204.370703 -8.879146 
L 202.554767 -8.879146 
L 200.738831 -8.879146 
L 198.922895 -8.879146 
L 197.106959 -8.879146 
L 195.291024 -8.879146 
L 193.475088 -8.879146 
L 191.659152 -8.879146 
L 189.843216 -8.879146 
L 188.02728 -8.879146 
L 186.211344 -8.879146 
L 184.395409 -8.879146 
L 182.579473 -8.879146 
L 180.763537 -8.879146 
L 178.947601 -8.879146 
L 177.131665 -8.879146 
L 175.31573 -8.879146 
L 173.499794 -8.879146 
L 171.683858 -8.879146 
L 169.867922 -8.879146 
L 168.051986 -8.879146 
L 166.236051 -8.879146 
L 164.420115 -8.879146 
L 162.604179 -8.879146 
L 160.788243 -8.879146 
L 158.972307 -8.879146 
L 157.156372 -8.879146 
L 155.340436 -8.879146 
L 153.5245 -8.879146 
L 151.708564 -8.879146 
L 149.892628 -8.879146 
L 148.076693 -8.879146 
L 146.260757 -8.879146 
L 144.444821 -8.879146 
L 142.628885 -8.879146 
L 140.812949 -8.879146 
L 138.997013 -8.879146 
L 137.181078 -8.879146 
L 135.365142 -8.879146 
L 133.549206 -8.879146 
L 131.73327 -8.879146 
L 129.917334 -8.879146 
L 128.101399 -8.879146 
L 126.285463 -8.879146 
L 124.469527 -8.879146 
L 122.653591 -8.879146 
L 120.837655 -8.879146 
L 119.02172 -8.879146 
L 117.205784 -8.879146 
L 115.389848 -8.879146 
L 113.573912 -8.879146 
L 111.757976 -8.879146 
L 109.942041 -8.879146 
L 108.126105 -8.879146 
L 106.310169 -8.879146 
L 104.494233 -8.879146 
L 102.678297 -8.879146 
L 100.862362 -8.879146 
L 99.046426 -8.879146 
L 97.23049 -8.879146 
L 95.414554 -8.879146 
L 93.598618 -8.879146 
L 91.782682 -8.879146 
L 89.966747 -8.879146 
L 88.150811 -8.879146 
L 86.334875 -8.879146 
L 84.518939 -8.879146 
L 82.703003 -8.879146 
L 80.887068 -8.879146 
L 79.071132 -8.879146 
L 77.255196 -8.879146 
L 75.43926 -8.879146 
L 73.623324 -8.879146 
L 71.807389 -8.879146 
L 69.991453 -8.879146 
L 68.175517 -8.879146 
L 66.359581 -8.879146 
L 64.543645 -8.879146 
L 62.72771 -8.879146 
L 60.911774 -8.879146 
L 59.095838 -8.879146 
L 57.279902 -8.879146 
L 55.463966 -8.879146 
L 53.648031 -8.879146 
L 51.832095 -8.879146 
L 50.016159 -8.879146 
L 48.200223 -8.879146 
L 46.384287 -8.879146 
L 44.568351 -8.879146 
L 42.752416 -8.879146 
L 40.93648 -8.879146 
L 39.120544 -8.879146 
L 37.304608 -8.879146 
L 35.488672 -8.879146 
L 33.672737 -8.879146 
L 31.856801 -8.879146 
L 30.040865 -8.879146 
z
" style="stroke: #ffffff"/>
    </defs>
    <g clip-path="url(#p51d98fb0e7)">
     <use xlink:href="#m7ede119598" x="0" y="216" style="fill: #ffffff; stroke: #ffffff"/>
    </g>
   </g>
   <g id="patch_3">
    <path d="M 30.040865 207.120854 
L 30.040865 31.276802 
" style="fill: none; stroke: #000000; stroke-width: 0.8; stroke-linejoin: miter; stroke-linecap: square"/>
   </g>
   <g id="patch_4">
    <path d="M 209.81851 207.120854 
L 209.81851 31.276802 
" style="fill: none; stroke: #000000; stroke-width: 0.8; stroke-linejoin: miter; stroke-linecap: square"/>
   </g>
   <g id="patch_5">
    <path d="M 30.040865 207.120854 
L 209.81851 207.120854 
" style="fill: none; stroke: #000000; stroke-width: 0.8; stroke-linejoin: miter; stroke-linecap: square"/>
   </g>
   <g id="patch_6">
    <path d="M 30.040865 31.276802 
L 209.81851 31.276802 
" style="fill: none; stroke: #000000; stroke-width: 0.8; stroke-linejoin: miter; stroke-linecap: square"/>
   </g>
   <g id="line2d_9">
    <path d="M 30.040865 31.276802 
L 31.856801 35.638008 
L 33.672737 39.766004 
L 35.488672 43.67874 
L 37.304608 47.392373 
L 39.120544 50.92149 
L 40.93648 54.279291 
L 42.752416 57.477752 
L 44.568351 60.527762 
L 46.384287 63.439245 
L 48.200223 66.221261 
L 50.016159 68.882104 
L 51.832095 71.429375 
L 53.648031 73.870057 
L 55.463966 76.210574 
L 57.279902 78.456848 
L 59.095838 80.614344 
L 60.911774 82.688118 
L 62.72771 84.682849 
L 64.543645 86.602876 
L 66.359581 88.45223 
L 68.175517 90.234658 
L 69.991453 91.953647 
L 71.807389 93.612451 
L 73.623324 95.214105 
L 75.43926 96.761444 
L 77.255196 98.257122 
L 79.071132 99.703622 
L 80.887068 101.103275 
L 82.703003 102.458264 
L 84.518939 103.770644 
L 86.334875 105.042344 
L 88.150811 106.275179 
L 89.966747 107.470862 
L 91.782682 108.631004 
L 93.598618 109.757127 
L 95.414554 110.850668 
L 97.23049 111.912985 
L 99.046426 112.945363 
L 100.862362 113.949015 
L 102.678297 114.925095 
L 104.494233 115.874693 
L 106.310169 116.798844 
L 108.126105 117.698531 
L 109.942041 118.574687 
L 111.757976 119.428198 
L 113.573912 120.259908 
L 115.389848 121.070619 
L 117.205784 121.861095 
L 119.02172 122.632064 
L 120.837655 123.38422 
L 122.653591 124.118224 
L 124.469527 124.834709 
L 126.285463 125.534275 
L 128.101399 126.217501 
L 129.917334 126.884935 
L 131.73327 127.537104 
L 133.549206 128.174512 
L 135.365142 128.79764 
L 137.181078 129.40695 
L 138.997013 130.002883 
L 140.812949 130.585863 
L 142.628885 131.156297 
L 144.444821 131.714574 
L 146.260757 132.261067 
L 148.076693 132.796136 
L 149.892628 133.320125 
L 151.708564 133.833366 
L 153.5245 134.336176 
L 155.340436 134.828862 
L 157.156372 135.311717 
L 158.972307 135.785026 
L 160.788243 136.249061 
L 162.604179 136.704084 
L 164.420115 137.150348 
L 166.236051 137.588096 
L 168.051986 138.017563 
L 169.867922 138.438977 
L 171.683858 138.852554 
L 173.499794 139.258505 
L 175.31573 139.657035 
L 177.131665 140.048338 
L 178.947601 140.432604 
L 180.763537 140.810017 
L 182.579473 141.180753 
L 184.395409 141.544983 
L 186.211344 141.902872 
L 188.02728 142.25458 
L 189.843216 142.600261 
L 191.659152 142.940065 
L 193.475088 143.274136 
L 195.291024 143.602614 
L 197.106959 143.925636 
L 198.922895 144.243331 
L 200.738831 144.555828 
L 202.554767 144.863249 
L 204.370703 145.165714 
L 206.186638 145.463339 
L 208.002574 145.756236 
L 209.81851 146.044513 
" clip-path="url(#p51d98fb0e7)" style="fill: none; stroke: #000000; stroke-width: 1.5; stroke-linecap: square"/>
   </g>
  </g>
 </g>
 <defs>
  <clipPath id="p51d98fb0e7">
   <rect x="30.040865" y="31.276802" width="179.777645" height="175.844051"/>
  </clipPath>
 </defs>
</svg>
